<?xml version="1.0" standalone="no"?>
<!DOCTYPE svg PUBLIC "-//W3C//DTD SVG 20010904//EN"
 "http://www.w3.org/TR/2001/REC-SVG-20010904/DTD/svg10.dtd">
<svg version="1.0" xmlns="http://www.w3.org/2000/svg"
 width="2500.000000pt" height="2500.000000pt" viewBox="0 0 2500.000000 2500.000000"
 preserveAspectRatio="xMidYMid meet">

<g transform="translate(0.000000,2500.000000) scale(0.100000,-0.100000)"
fill="#000000" stroke="none">
<path d="M2278 22424 c4 -296 4 -297 27 -318 13 -12 27 -34 30 -49 4 -15 11
-30 16 -32 4 -3 6 -19 2 -36 -4 -22 -1 -34 16 -48 11 -10 21 -23 21 -30 0 -6
5 -11 11 -11 14 0 39 -26 39 -41 0 -13 -88 -7 -99 7 -3 5 -18 20 -33 33 l-27
24 3 -469 c2 -258 4 -475 5 -482 1 -10 35 -12 149 -10 125 3 146 5 143 18 -2
8 -6 355 -10 770 -5 608 -9 760 -20 780 -10 17 -11 25 -2 28 7 2 11 32 11 83
l0 79 -143 0 -143 0 4 -296z m166 -740 c4 -10 1 -14 -6 -12 -15 5 -23 28 -10
28 5 0 13 -7 16 -16z m106 -94 c0 -5 -5 -10 -11 -10 -5 0 -7 -4 -4 -10 3 -5 1
-10 -4 -10 -6 0 -11 9 -11 20 0 11 7 20 15 20 8 0 15 -4 15 -10z"/>
<path d="M22440 22641 c0 -54 4 -81 13 -84 9 -4 8 -8 -3 -16 -12 -9 -16 -93
-22 -578 -4 -312 -11 -626 -17 -698 -6 -71 -10 -167 -11 -212 0 -100 -10 -95
180 -91 l135 3 3 488 c2 398 0 487 -11 487 -17 0 -41 92 -33 125 4 14 13 25
21 25 8 0 17 10 20 23 2 12 6 154 8 315 l3 292 -143 0 -143 0 0 -79z"/>
<path d="M20287 21323 c-17 -3 -32 -14 -39 -29 -6 -13 -19 -26 -30 -29 -10 -4
-18 -13 -18 -20 0 -8 -11 -26 -25 -41 -14 -15 -25 -31 -25 -35 0 -19 -44 37
-56 70 -14 43 -29 49 -44 21 -11 -21 -11 -21 -31 4 -20 25 -59 36 -59 16 0 -5
-7 -10 -15 -10 -8 0 -15 4 -15 9 0 5 -8 12 -17 15 -12 5 -25 -2 -43 -22 -14
-16 -35 -32 -47 -35 -19 -4 -23 -1 -23 20 0 34 -26 59 -45 43 -8 -6 -17 -20
-20 -31 -10 -31 -41 -23 -59 16 -18 38 -52 48 -63 18 -4 -10 -13 -29 -22 -42
l-15 -23 -9 23 -8 24 -20 -24 c-10 -13 -19 -32 -19 -43 0 -31 -24 -15 -31 21
-4 17 -9 35 -12 38 -12 12 -38 -8 -52 -39 -8 -18 -14 -26 -15 -18 -1 36 -90
96 -90 61 0 -19 -32 -42 -52 -36 -10 4 -25 2 -32 -4 -7 -6 -34 -12 -59 -12
-26 -1 -45 -4 -42 -7 3 -3 0 -11 -6 -18 -14 -17 -39 -7 -39 17 0 10 -5 30 -12
44 -9 20 -16 25 -32 19 -12 -3 -34 -6 -51 -5 -16 0 -38 -8 -50 -18 -33 -31
-71 -37 -85 -12 -16 31 -43 12 -60 -41 -18 -59 -27 -66 -46 -40 -8 12 -19 22
-23 22 -27 0 -54 -156 -35 -204 6 -15 144 -16 1502 -16 1076 0 1499 3 1509 11
9 8 13 8 13 0 0 -8 75 -11 278 -9 l277 3 3 53 c2 28 7 52 13 52 5 0 9 7 9 15
0 8 -4 15 -10 15 -5 0 -10 17 -10 38 0 20 -6 44 -13 53 -14 19 -77 39 -123 39
-27 0 -35 -6 -52 -40 -10 -22 -22 -37 -26 -33 -3 3 -6 0 -7 -8 -1 -8 -9 11
-18 41 -13 42 -22 56 -38 58 -17 3 -24 -6 -38 -49 -18 -53 -18 -53 -36 -31
-23 29 -29 28 -29 -5 0 -29 -8 -28 -13 3 -2 10 -9 29 -17 41 -11 17 -18 19
-32 12 -10 -5 -18 -19 -18 -29 0 -21 -24 -27 -35 -10 -9 15 -41 12 -59 -5 -8
-8 -17 -15 -20 -15 -3 0 -6 7 -6 15 0 22 -38 18 -50 -5 -13 -23 -45 -27 -54
-5 -3 8 -15 15 -27 15 -12 0 -28 8 -35 18 -13 16 -15 16 -34 -7 -11 -13 -20
-29 -20 -37 0 -24 -38 -16 -42 9 -3 22 -10 24 -63 15 -11 -2 -19 2 -18 9 3 14
-32 27 -47 18 -5 -3 -10 -13 -10 -21 0 -8 -7 -14 -15 -14 -17 0 -55 35 -55 51
0 5 -4 8 -9 5 -5 -3 -11 4 -15 17 -5 21 -48 77 -58 77 -3 0 -15 -22 -27 -49
-23 -55 -36 -68 -45 -46 -9 23 -41 18 -56 -10 -7 -14 -17 -25 -21 -25 -4 0
-16 11 -27 25 -25 31 -38 32 -47 3 -6 -21 -8 -19 -26 20 -21 45 -32 50 -54 28
-8 -7 -31 -16 -52 -19 -21 -4 -49 -16 -61 -27 -15 -14 -22 -16 -22 -7 0 17
-23 67 -31 67 -11 0 -37 -35 -41 -55 -2 -12 -11 -20 -23 -20 -19 0 -27 16 -40
78 -5 24 -35 40 -35 18 0 -5 -6 -16 -12 -23 -7 -7 -20 -26 -28 -41 -12 -25
-15 -26 -21 -10 -3 10 -21 30 -39 45 -17 14 -30 30 -28 35 3 9 -80 13 -125 6z"/>
<path d="M18534 21258 c-4 -7 -10 -74 -12 -150 l-5 -138 26 0 c18 0 28 7 35
28 11 33 7 178 -7 214 -5 14 -8 28 -5 31 2 2 -2 10 -10 16 -11 9 -16 9 -22 -1z"/>
<path d="M18626 21146 c-21 -34 -22 -148 -1 -166 12 -10 15 -9 15 4 0 10 4 14
10 11 14 -9 21 33 18 105 -3 70 -16 84 -42 46z"/>
<path d="M20960 19594 c-51 -4 -145 -32 -175 -51 -11 -7 -26 -13 -35 -13 -8 0
-27 -11 -42 -25 -15 -14 -30 -25 -34 -25 -20 0 -134 -133 -163 -190 -65 -127
-81 -187 -81 -303 0 -89 5 -115 40 -192 5 -11 14 -37 21 -57 7 -21 16 -38 19
-38 4 0 12 -11 18 -24 35 -77 194 -216 248 -216 8 0 14 -4 14 -8 0 -12 95 -39
182 -53 58 -9 88 -9 122 0 25 6 61 11 80 11 20 0 36 5 36 10 0 6 8 10 18 10
28 1 157 72 199 110 49 44 123 134 123 149 0 6 4 11 9 11 5 0 23 44 40 98 26
82 31 113 31 200 0 110 -20 201 -61 272 -5 8 -16 30 -25 48 -21 41 -155 178
-183 187 -12 3 -21 11 -21 16 0 5 -6 9 -13 9 -7 0 -44 13 -82 29 -72 30 -181
43 -285 35z"/>
<path d="M4370 19543 c-147 -53 -218 -96 -303 -187 -44 -48 -81 -112 -124
-216 -14 -36 -18 -72 -18 -187 0 -100 4 -146 13 -155 6 -6 12 -19 12 -27 0 -8
17 -49 37 -90 52 -108 156 -210 261 -257 42 -19 86 -39 97 -44 69 -30 275 -31
350 0 107 43 183 91 249 156 67 66 136 173 136 210 0 8 4 22 9 32 39 78 40
269 1 367 -5 11 -18 46 -31 78 -12 31 -26 57 -31 57 -4 0 -8 5 -8 11 0 6 -12
23 -27 39 -16 16 -39 41 -53 56 -47 51 -125 100 -211 132 -80 30 -92 32 -215
31 -71 0 -136 -3 -144 -6z"/>
<path d="M21199 16916 c-2 -3 -108 -7 -235 -10 -214 -5 -261 -9 -274 -26 -24
-32 -210 -88 -210 -63 0 5 16 26 35 46 l35 37 -523 1 c-287 1 -594 2 -682 3
-205 2 -341 -9 -361 -29 -9 -8 -26 -15 -40 -15 -13 0 -24 -4 -24 -10 0 -5 -11
-10 -24 -10 -13 0 -26 -4 -28 -9 -5 -13 -78 -24 -78 -11 0 5 11 10 24 10 14 0
31 7 40 15 8 8 24 15 35 15 12 0 21 5 21 10 0 6 7 10 15 10 8 0 15 4 15 9 0
11 -182 26 -205 17 -16 -6 -172 -6 -735 -3 -327 3 -446 -2 -458 -18 -11 -15
-79 -44 -86 -37 -4 3 10 16 30 28 l36 22 -49 6 c-61 8 -372 0 -398 -10 -11 -4
-31 -18 -45 -31 -22 -20 -95 -59 -155 -84 -11 -4 -38 -10 -60 -14 -57 -9 -105
-25 -105 -36 0 -5 -9 -9 -19 -9 -11 0 -26 -7 -35 -15 -8 -8 -24 -15 -36 -15
-12 0 -27 -6 -35 -12 -30 -29 -69 -53 -94 -58 -14 -3 78 -9 204 -12 127 -4
248 -3 270 2 82 18 102 21 80 11 -14 -7 33 -10 145 -11 303 -4 450 1 486 16
18 8 38 14 44 14 17 0 11 -18 -7 -23 -10 -3 21 -5 70 -6 48 0 87 3 87 8 0 5
15 14 33 22 17 7 36 19 40 26 4 7 15 13 22 13 8 0 15 4 15 9 0 8 62 41 117 62
54 20 25 -34 -34 -65 -18 -9 -39 -16 -47 -16 -8 0 -16 -4 -18 -9 -1 -5 -23
-18 -48 -29 l-45 -21 105 -3 c58 -1 188 -3 289 -3 138 0 185 -3 188 -12 6 -16
50 -17 109 -2 48 12 104 -2 104 -26 0 -8 17 -16 40 -20 31 -5 46 -2 69 14 31
22 105 29 116 11 4 -6 10 -8 14 -5 5 2 17 -2 27 -10 10 -8 29 -15 41 -15 12 0
25 -4 28 -10 11 -18 43 -11 50 11 5 14 12 18 23 14 10 -3 44 -8 76 -11 51 -3
61 -1 73 16 16 22 43 26 60 9 7 -7 19 -9 28 -5 13 5 14 8 3 20 -7 8 -16 12
-19 10 -4 -2 -9 2 -12 10 -4 9 8 17 36 25 23 7 56 17 73 22 17 5 38 9 47 9 18
0 57 34 57 50 0 6 7 10 15 10 8 0 25 11 39 25 35 34 256 107 256 84 0 -5 -7
-9 -15 -9 -9 0 -20 -11 -25 -24 -5 -13 -18 -27 -29 -31 -12 -3 -21 -11 -21
-16 0 -5 -6 -9 -12 -9 -7 0 -39 -16 -71 -35 -32 -19 -65 -35 -73 -35 -7 0 -14
-4 -14 -10 0 -5 -8 -10 -18 -10 -18 0 -72 -44 -72 -59 0 -11 134 -19 174 -11
16 3 55 3 87 0 95 -9 199 0 199 17 0 12 3 12 22 -1 12 -9 40 -16 62 -16 25 0
44 -6 52 -17 13 -17 15 -17 25 0 8 14 25 17 99 17 87 0 96 -3 91 -32 0 -4 15
-10 35 -14 30 -5 40 -2 63 20 27 26 61 35 61 16 0 -5 11 -10 24 -10 14 0 28 5
31 10 11 17 106 12 127 -7 16 -14 24 -15 48 -6 15 6 39 8 53 6 14 -3 28 0 31
6 5 7 53 11 133 11 116 0 127 -2 144 -22 l19 -21 23 21 c24 22 87 31 87 12 0
-5 7 -10 15 -10 8 0 15 5 15 11 0 7 43 9 133 6 72 -2 148 0 167 4 43 10 80 2
80 -17 0 -8 9 -14 20 -14 11 0 20 7 20 15 0 25 40 18 50 -9 13 -35 30 -36 82
-4 45 28 54 29 152 29 92 0 106 2 111 18 5 16 86 51 119 51 6 0 42 16 80 35
39 19 76 35 83 35 7 0 29 7 50 16 78 34 128 49 151 45 6 -1 12 2 12 7 0 5 18
12 41 16 22 4 51 16 63 29 13 12 33 30 46 40 12 10 20 20 18 23 -5 5 -395 6
-691 2 -160 -2 -230 -6 -235 -15 -4 -6 -20 -15 -35 -18 -15 -4 -27 -12 -27
-17 0 -5 -7 -2 -17 7 -13 14 -14 18 -2 25 27 17 -5 25 -97 23 -67 -1 -100 -6
-116 -17 -12 -9 -32 -16 -43 -16 -12 0 -25 -4 -30 -9 -6 -5 -27 -12 -47 -15
-37 -7 -38 -6 -38 23 0 27 -4 30 -50 40 -59 13 -55 12 -61 7z m-2819 -40 c0
-2 -7 -6 -15 -10 -8 -3 -15 -1 -15 4 0 6 7 10 15 10 8 0 15 -2 15 -4z m1530
-2 c0 -3 -6 -12 -14 -20 -17 -16 -46 -19 -46 -4 0 6 7 10 15 10 8 0 15 5 15
10 0 6 7 10 15 10 8 0 15 -3 15 -6z m1320 -33 c0 -5 12 -11 28 -13 23 -3 18
-7 -40 -33 -66 -30 -81 -45 -92 -97 -8 -35 -29 -36 -44 -3 -6 14 -18 25 -27
25 -25 0 -17 36 12 56 75 52 163 86 163 65z m-1210 -20 c0 -9 -100 -61 -118
-61 -6 0 -13 -6 -15 -12 -4 -9 -6 -8 -6 2 0 8 23 29 52 47 52 31 87 41 87 24z
m-2661 -38 c-30 -39 -48 -56 -71 -67 -32 -17 -114 -39 -128 -34 -13 4 41 68
58 68 5 0 12 4 14 8 5 13 80 41 112 41 26 1 27 -1 15 -16z m3081 7 c0 -5 -4
-10 -10 -10 -5 0 -10 5 -10 10 0 6 5 10 10 10 6 0 10 -4 10 -10z m1680 -87
c-1 -11 -66 -51 -89 -55 -49 -8 0 41 55 55 30 8 34 7 34 0z m-2432 -66 c-20
-19 -68 -38 -79 -31 -14 8 42 37 84 43 5 0 2 -5 -5 -12z"/>
<path d="M1765 16902 c-1 -2 -75 -3 -164 -3 l-161 1 0 -151 c0 -134 2 -150 16
-145 9 3 150 6 314 6 248 0 301 2 313 15 8 8 33 24 56 37 23 13 52 29 64 35
12 7 32 13 45 13 12 0 22 4 22 9 0 5 9 13 20 16 11 3 20 15 20 26 0 10 7 19
15 19 8 0 15 4 15 9 0 4 16 11 35 14 36 6 65 27 65 46 0 6 11 11 24 11 22 0
43 26 31 38 -5 5 -724 10 -730 4z m-148 -28 c-3 -3 -12 -4 -19 -1 -8 3 -5 6 6
6 11 1 17 -2 13 -5z"/>
<path d="M3088 16903 c-66 -3 -88 -7 -88 -18 0 -15 -81 -50 -102 -43 -7 3 6
14 30 27 23 12 42 24 42 26 0 3 -35 5 -78 5 -61 0 -84 -4 -100 -17 -11 -10
-29 -25 -39 -33 -10 -9 -34 -22 -53 -30 -19 -7 -54 -26 -77 -42 -23 -16 -56
-31 -73 -34 -17 -4 -33 -11 -36 -15 -3 -5 -20 -9 -39 -9 -18 0 -40 -7 -49 -15
-8 -8 -22 -15 -30 -15 -9 0 -16 -4 -16 -10 0 -5 -7 -10 -15 -10 -8 0 -15 -6
-15 -13 0 -7 -8 -19 -19 -26 -17 -12 -18 -27 -15 -170 1 -86 5 -320 9 -521 3
-201 8 -391 12 -422 5 -55 7 -58 34 -58 25 0 28 4 34 44 4 24 3 52 -3 62 -7
13 -3 29 16 63 13 25 26 48 28 50 7 8 34 -29 34 -48 0 -12 5 -21 10 -21 6 0
10 -17 10 -38 0 -21 4 -42 9 -47 6 -6 11 -30 13 -55 l3 -45 42 -3 42 -3 5 428
c7 521 11 609 33 617 18 7 91 -28 110 -52 7 -10 13 -25 13 -34 0 -29 43 -22
58 9 6 15 12 31 12 36 0 5 7 15 15 23 8 9 15 13 15 10 0 -3 11 4 25 16 14 12
25 30 25 40 0 11 7 18 20 18 13 0 20 -7 20 -20 0 -11 5 -20 10 -20 6 0 10 -13
10 -30 0 -23 4 -30 20 -30 11 0 20 7 20 15 0 8 9 15 19 15 23 0 30 9 33 44 3
36 32 34 48 -4 12 -29 30 -41 30 -20 0 6 8 10 18 10 13 0 18 -9 20 -31 4 -45
10 -51 48 -47 18 1 39 -3 46 -10 21 -21 47 -13 64 19 15 31 16 31 30 10 21
-29 44 -27 44 4 0 30 25 95 37 95 16 0 43 -40 43 -63 1 -32 34 -72 54 -64 9 4
16 15 16 26 0 24 25 34 50 19 16 -10 22 -9 37 8 11 13 28 20 43 19 14 -1 28 3
32 8 9 15 47 -31 54 -65 10 -43 30 -33 44 19 6 26 16 51 22 54 12 7 34 -13 61
-54 22 -34 34 -34 59 -1 16 20 26 24 45 19 29 -7 73 18 73 41 0 11 5 14 16 10
9 -3 18 -6 20 -6 2 0 4 -8 4 -17 0 -10 9 -29 20 -43 19 -23 21 -24 31 -7 15
25 38 21 49 -8 11 -30 36 -33 43 -5 6 24 57 29 57 5 0 -23 41 -19 47 5 8 32
57 26 96 -11 29 -28 36 -30 79 -25 44 6 48 5 64 -24 17 -28 54 -42 54 -21 0 5
15 14 33 20 24 8 41 27 67 71 19 32 37 55 38 49 2 -5 10 -9 18 -9 8 0 14 -7
14 -15 0 -8 7 -15 15 -15 19 0 55 -57 55 -89 0 -17 4 -22 16 -17 9 3 18 6 20
6 2 0 4 9 4 20 0 23 4 24 29 8 23 -14 51 4 51 33 0 25 9 24 40 -6 33 -31 57
-25 69 19 5 17 10 23 10 13 2 -35 32 -67 62 -67 23 0 32 7 44 33 7 17 16 43
19 57 11 49 34 65 40 28 4 -27 50 -108 74 -130 l24 -23 24 28 c19 23 27 26 43
17 32 -17 51 -12 52 13 0 15 2 17 6 7 13 -33 69 -43 75 -13 3 15 6 14 25 -6
19 -20 25 -22 38 -11 8 7 15 19 15 27 0 8 5 11 10 8 6 -3 10 -1 10 6 0 7 8 3
18 -8 12 -14 31 -21 67 -22 28 -1 79 -4 115 -6 48 -3 69 0 82 11 12 12 21 13
37 5 30 -17 51 -13 51 8 0 20 18 31 50 31 10 0 20 4 22 9 2 6 23 -8 47 -30 40
-36 48 -40 80 -34 45 8 61 21 61 49 1 38 33 81 63 84 15 2 27 -1 27 -5 0 -5
14 -31 32 -59 l32 -49 7 40 c13 66 11 173 -3 179 -10 5 -10 7 0 12 7 3 19 12
27 21 13 13 15 13 15 -1 0 -9 -7 -16 -15 -16 -8 0 -15 -4 -15 -10 0 -6 28 -10
65 -10 53 0 77 6 124 30 32 16 61 26 65 23 3 -4 6 -1 6 5 0 7 7 12 16 12 12 0
8 -7 -12 -22 -16 -12 -31 -25 -34 -29 -3 -3 -12 -9 -20 -12 -8 -3 40 -6 107
-6 67 -1 134 4 149 9 14 6 49 31 76 55 28 25 56 45 63 45 16 0 128 58 135 70
11 18 136 73 165 73 28 0 63 22 53 33 -8 8 -1971 8 -2017 0 -69 -13 -102 -44
-94 -90 4 -26 1 -34 -13 -39 -26 -8 -98 -50 -102 -59 -2 -5 -10 -8 -17 -8 -7
0 -26 -7 -41 -15 -16 -8 -36 -15 -45 -15 -8 0 -19 -4 -25 -10 -5 -5 -29 -11
-54 -14 -72 -7 -120 -18 -120 -27 0 -5 -11 -9 -25 -9 -34 0 -32 16 3 23 15 3
37 15 49 26 12 12 27 21 32 21 6 0 25 20 43 44 28 37 54 53 165 107 73 35 130
65 128 68 -3 2 -267 3 -587 1 -321 -1 -601 -2 -623 -1 -203 3 -214 2 -257 -21
-24 -13 -44 -26 -46 -30 -2 -5 -12 -8 -23 -8 -10 0 -19 -4 -19 -9 0 -5 -14
-12 -31 -16 -17 -4 -33 -13 -36 -21 -3 -8 -16 -14 -29 -14 -13 0 -24 -4 -24
-8 0 -4 -17 -14 -37 -21 -21 -8 -43 -19 -50 -25 -35 -31 -44 -36 -63 -36 -12
0 -28 -7 -36 -15 -9 -8 -24 -15 -35 -15 -10 0 -19 -4 -19 -9 0 -5 -13 -12 -30
-16 -16 -4 -30 -11 -30 -16 0 -5 -11 -9 -25 -9 -14 0 -25 3 -25 6 0 10 26 31
48 38 12 4 22 11 22 16 0 5 16 12 35 16 19 3 35 10 35 15 0 5 7 9 15 9 8 0 15
3 15 8 0 4 16 16 35 26 19 11 35 23 35 28 0 4 11 8 25 8 14 0 25 4 25 9 0 5
18 11 40 15 22 3 40 11 40 16 0 5 11 12 25 16 14 3 25 9 26 13 0 3 2 16 4 27
4 18 -2 22 -36 28 -61 10 -217 -4 -230 -20 -6 -8 -17 -14 -24 -14 -15 0 -123
-56 -145 -74 -36 -31 -160 -66 -160 -45 0 10 75 60 112 73 18 7 48 19 66 25
17 7 32 17 32 22 0 5 7 9 15 9 8 0 15 5 15 10 0 6 -29 10 -67 10 -38 0 -84 2
-103 3 -19 2 -74 2 -122 0z m1252 -104 c0 -26 -3 -30 -17 -24 -10 4 -30 10
-45 13 -48 8 -25 42 29 42 30 0 33 -3 33 -31z m-360 11 c0 -5 -11 -12 -25 -16
-14 -3 -25 -10 -25 -15 0 -5 -10 -9 -22 -9 -37 0 4 29 70 49 1 1 2 -3 2 -9z
m2839 -23 c-15 -14 -69 -29 -69 -18 0 7 73 39 79 35 2 -2 -3 -9 -10 -17z m99
-37 c-18 -16 -38 -30 -45 -30 -6 0 -13 -4 -15 -9 -1 -5 -16 -12 -33 -15 -16
-4 -24 -3 -17 0 6 3 12 10 12 16 0 22 66 68 97 68 13 0 23 6 24 13 0 9 2 9 6
-1 3 -7 -10 -26 -29 -42z m-623 -6 c-16 -13 -41 -24 -55 -24 -25 1 -25 1 5 17
17 9 32 19 35 23 7 10 34 18 40 13 3 -3 -8 -16 -25 -29z m415 -7 c0 -14 -65
-55 -117 -73 -19 -7 -33 -8 -33 -2 0 22 50 60 96 72 27 7 50 14 52 15 1 0 2
-5 2 -12z m-4041 -10 c-15 -12 -89 -35 -89 -28 0 11 46 29 74 30 11 1 17 -1
15 -2z m1796 -27 c-8 -13 -73 -32 -88 -27 -7 3 -5 6 6 6 9 1 17 6 17 11 0 6 9
10 19 10 11 0 23 5 26 10 4 6 11 8 16 4 5 -3 7 -9 4 -14z m-1415 2 c0 -13 -47
-32 -73 -31 -17 1 -18 2 -4 6 9 2 17 8 17 13 0 7 10 11 53 19 4 0 7 -3 7 -7z
m-310 -10 c0 -10 -57 -32 -64 -24 -7 6 32 30 52 31 6 1 12 -3 12 -7z m66 -52
c-22 -11 -46 -20 -53 -20 -7 0 -13 -4 -13 -10 0 -5 -9 -10 -20 -10 -25 0 -26
15 -2 24 9 3 33 12 52 20 54 22 82 19 36 -4z m114 0 c-20 -13 -33 -13 -25 0 3
6 14 10 23 10 15 0 15 -2 2 -10z m3120 -6 c0 -13 -30 -34 -48 -34 -34 0 -34
14 0 26 39 15 48 16 48 8z m-660 -24 c0 -5 -2 -10 -4 -10 -3 0 -8 5 -11 10 -3
6 -1 10 4 10 6 0 11 -4 11 -10z"/>
<path d="M7720 16900 c-91 -4 -122 -9 -147 -25 -18 -11 -33 -23 -33 -27 0 -5
-7 -8 -15 -8 -8 0 -15 -3 -15 -7 0 -5 -15 -17 -32 -28 -18 -11 -44 -28 -58
-37 -14 -10 -32 -20 -40 -24 -47 -19 -67 -27 -85 -37 -112 -60 -164 -86 -180
-90 -11 -2 9 -5 44 -6 66 -1 62 -3 206 82 17 10 50 27 75 39 25 12 47 25 50
28 8 10 88 40 106 40 14 0 14 -2 0 -15 -8 -8 -19 -15 -25 -15 -6 0 -11 -3 -11
-8 0 -4 -16 -15 -35 -25 -19 -9 -51 -25 -71 -34 -19 -10 -43 -25 -52 -33 -26
-23 -66 -47 -87 -53 -20 -5 140 -8 515 -9 204 0 205 0 255 26 28 15 54 31 60
37 5 5 15 9 22 9 7 0 22 8 32 18 37 34 108 82 142 96 19 8 43 23 54 33 11 10
32 24 48 32 32 17 35 31 7 31 -11 0 -20 -4 -20 -10 0 -5 -10 -10 -22 -9 -21 0
-21 1 -4 8 13 5 16 10 8 15 -14 8 -536 13 -692 6z"/>
<path d="M8989 16901 c-62 -4 -90 -11 -103 -23 -10 -10 -23 -18 -31 -18 -7 0
-16 -6 -18 -12 -3 -7 -6 2 -6 20 -1 32 -2 32 -50 32 -27 0 -56 -3 -65 -6 -23
-9 -20 -51 4 -59 11 -3 20 -10 20 -15 0 -5 8 -11 18 -13 10 -3 6 -5 -10 -6
-16 0 -28 -4 -28 -9 0 -4 -18 -18 -40 -32 -22 -13 -42 -30 -44 -37 -6 -15 -36
-18 -36 -3 0 6 4 10 8 10 5 0 6 19 3 43 -6 40 -8 42 -43 45 -38 3 -108 -22
-108 -39 0 -5 -5 -9 -10 -9 -6 0 -34 -22 -63 -50 -29 -27 -56 -50 -60 -50 -12
0 -70 -50 -65 -56 2 -2 105 -4 228 -4 222 -2 226 -1 290 25 36 15 69 31 75 36
5 5 18 9 28 9 18 0 30 9 90 65 24 23 102 55 131 55 20 0 137 40 146 49 3 4 17
12 33 20 43 23 32 31 -40 31 -38 0 -90 2 -118 4 -27 2 -89 1 -136 -3z m-439
-221 c0 -5 -8 -10 -17 -10 -15 0 -16 2 -3 10 19 12 20 12 20 0z"/>
<path d="M10317 16899 c-32 -4 -64 -12 -70 -18 -16 -16 -37 -14 -37 4 0 27
-113 20 -163 -9 -23 -14 -62 -28 -87 -32 l-45 -7 29 32 30 31 -81 0 c-58 0
-86 -4 -96 -15 -8 -7 -27 -17 -42 -21 -16 -4 -37 -14 -47 -23 -11 -9 -29 -24
-40 -33 -12 -10 -32 -18 -45 -18 -12 0 -23 -4 -23 -10 0 -5 -9 -10 -19 -10
-17 0 -78 -27 -91 -40 -3 -3 -24 -14 -47 -24 -24 -11 -43 -22 -43 -26 0 -4
-15 -11 -32 -14 -18 -3 -46 -17 -63 -31 l-30 -24 69 -1 c56 0 86 7 157 35 49
19 101 35 115 35 l27 0 -24 -20 c-13 -11 -29 -24 -34 -28 -6 -5 -17 -12 -25
-15 -17 -6 243 -10 547 -7 l213 2 31 29 c17 16 42 32 55 35 13 3 24 10 24 14
0 4 20 11 45 14 25 4 45 11 45 17 0 5 5 9 11 9 7 0 19 8 28 19 15 17 81 35 81
21 0 -11 -52 -45 -100 -65 -25 -10 -56 -26 -70 -36 -30 -20 -88 -46 -115 -52
-26 -6 118 -9 477 -9 l287 -1 58 35 c32 19 73 41 91 49 17 7 32 17 32 20 0 3
51 25 113 48 61 23 126 48 142 56 42 18 75 25 75 14 0 -5 -4 -9 -8 -9 -5 0
-22 -11 -38 -25 -16 -14 -33 -25 -37 -25 -8 0 -67 -57 -67 -65 0 -2 18 -10 40
-16 41 -13 41 -13 169 28 24 8 56 22 70 32 35 24 91 51 107 51 7 0 19 6 26 13
25 24 96 57 122 57 50 0 20 -31 -58 -61 -31 -11 -56 -25 -56 -30 0 -5 -11 -9
-25 -9 -14 0 -25 -4 -25 -9 0 -5 -24 -17 -52 -26 -50 -15 -157 -64 -168 -75
-12 -12 -57 -38 -75 -43 -11 -2 5 -5 35 -6 60 -1 177 31 194 53 17 23 102 66
129 66 13 0 32 9 42 20 10 11 24 20 30 20 7 0 18 7 25 15 7 8 24 15 39 14 16
0 20 -3 11 -6 -8 -3 -17 -9 -20 -12 -11 -14 -60 -41 -75 -41 -8 0 -15 -4 -15
-10 0 -5 -7 -10 -15 -10 -8 0 -15 -3 -15 -8 0 -7 -33 -26 -103 -57 -112 -49
-111 -45 -17 -41 47 2 99 6 115 10 26 5 27 5 5 -3 -31 -11 172 -13 1159 -13
668 0 745 2 753 16 5 9 16 16 23 16 8 0 15 5 15 10 0 6 7 10 15 10 8 0 15 4
15 8 0 4 25 21 55 37 30 15 55 32 55 37 0 4 9 8 19 8 11 0 26 7 35 15 8 8 22
15 30 15 9 0 16 5 16 10 0 6 13 10 29 10 16 0 36 7 45 15 8 8 23 15 34 15 17
0 88 57 80 65 -5 6 -223 10 -360 8 -97 -2 -130 -7 -142 -18 -8 -8 -18 -15 -23
-15 -4 0 -19 -10 -33 -23 -34 -31 -90 -51 -90 -32 0 13 93 65 117 65 7 0 13 4
13 9 0 12 -241 18 -440 11 -132 -5 -151 -8 -167 -26 -20 -22 -73 -48 -81 -40
-10 10 20 35 49 41 39 9 37 25 -3 26 -18 1 -327 1 -686 0 -537 -1 -659 -4
-681 -15 -39 -21 -97 -30 -105 -17 -4 6 0 11 8 11 27 0 18 18 -11 24 -16 3
-127 4 -248 2 -121 -3 -279 -5 -351 -5 -124 -1 -132 -2 -159 -25 -26 -22 -55
-33 -152 -56 -19 -4 -33 -4 -33 1 0 5 6 9 13 9 12 1 82 59 75 65 -7 6 -437 10
-491 4z m2283 -27 c0 -9 -33 -30 -68 -43 l-27 -10 25 24 c33 31 70 46 70 29z
m-2670 -46 c0 -2 -13 -6 -30 -8 -16 -3 -30 -1 -30 4 0 4 14 8 30 8 17 0 30 -2
30 -4z m3580 -26 c-8 -5 -19 -10 -25 -10 -5 0 -3 5 5 10 8 5 20 10 25 10 6 0
3 -5 -5 -10z m130 0 c0 -5 -5 -10 -11 -10 -5 0 -7 5 -4 10 3 6 8 10 11 10 2 0
4 -4 4 -10z m-2960 -10 c0 -5 -7 -10 -15 -10 -8 0 -15 5 -15 10 0 6 7 10 15
10 8 0 15 -4 15 -10z m2795 -10 c3 -5 1 -10 -4 -10 -6 0 -11 5 -11 10 0 6 2
10 4 10 3 0 8 -4 11 -10z m-3665 -6 c0 -3 -6 -12 -14 -20 -17 -16 -46 -19 -46
-4 0 6 7 10 15 10 8 0 15 5 15 10 0 6 7 10 15 10 8 0 15 -3 15 -6z m1310 0 c0
-22 -148 -103 -189 -104 -23 0 -22 1 10 31 36 32 83 57 134 69 41 11 45 11 45
4z m-1400 -54 c-8 -5 -17 -7 -19 -4 -3 3 1 9 9 14 8 5 17 7 19 4 3 -3 -1 -9
-9 -14z"/>
<path d="M14671 16899 c-29 -4 -56 -11 -60 -17 -9 -14 -42 -28 -81 -36 l-35
-6 45 27 45 28 -65 3 c-45 2 -68 -1 -75 -10 -15 -21 -117 -67 -166 -76 -43 -8
-65 -22 -115 -69 -13 -13 -25 -23 -28 -23 -2 0 -27 -16 -55 -35 -29 -19 -68
-37 -87 -41 -19 -3 -37 -10 -40 -15 -3 -5 -10 -7 -15 -4 -5 4 -9 1 -9 -4 0 -7
25 -11 61 -11 46 0 70 6 103 25 23 13 62 31 86 40 63 22 170 77 170 87 0 4 7
8 15 8 29 0 -1 -35 -47 -56 -45 -20 -47 -21 -88 -55 -14 -12 -38 -28 -55 -35
-26 -11 10 -13 265 -14 328 -1 1215 -1 1703 0 l318 1 -3 22 c-3 18 -26 37 -63
50 -27 10 23 36 91 47 65 11 77 17 85 37 5 14 27 33 51 44 24 11 54 27 68 35
19 11 44 14 98 10 74 -6 112 5 112 31 0 16 18 15 -725 15 -704 -1 -645 1 -645
-15 0 -12 -82 -67 -101 -67 -5 0 -23 -10 -39 -22 -17 -12 -55 -29 -85 -39 -46
-14 -55 -14 -55 -3 0 8 4 14 10 14 12 0 143 62 150 71 3 4 29 15 58 25 28 10
52 22 52 26 0 5 -71 9 -157 9 -87 1 -266 2 -398 3 -132 2 -264 -1 -294 -5z
m1219 -55 c0 -14 8 -16 50 -10 35 5 50 3 50 -5 0 -17 -39 -48 -69 -56 -13 -3
-36 -12 -50 -19 -46 -24 -78 -15 -49 14 8 8 5 16 -13 31 l-24 19 24 21 c29 26
81 29 81 5z m150 -62 c0 -11 -82 -52 -91 -46 -13 8 1 31 24 42 27 13 67 15 67
4z m-521 -44 c-13 -12 -64 -38 -74 -38 -3 0 -5 4 -5 10 0 5 11 12 25 16 14 3
25 10 25 14 0 8 31 19 39 14 2 -2 -3 -9 -10 -16z"/>
<path d="M22899 16901 c-35 -4 -62 -13 -75 -25 -25 -25 -88 -53 -152 -67 -29
-6 -52 -14 -52 -19 0 -4 -13 -13 -30 -20 -16 -7 -30 -16 -30 -21 0 -5 -7 -9
-15 -9 -8 0 -15 -4 -15 -9 0 -5 -35 -26 -77 -47 -70 -35 -85 -39 -143 -37 -62
3 -112 -12 -82 -24 23 -9 12 -20 -29 -27 -53 -8 -51 -36 4 -49 33 -8 42 -6 61
12 15 14 35 21 63 21 l40 0 11 -138 c7 -78 12 -332 12 -580 0 -262 4 -442 9
-442 26 0 41 15 47 46 3 19 10 34 14 34 4 0 10 12 13 28 8 46 55 166 66 170 6
2 11 10 11 18 0 8 3 14 6 14 17 0 36 -35 46 -85 10 -50 13 -55 38 -55 l27 0 6
263 c4 144 7 363 7 487 0 124 3 234 6 246 6 23 25 23 1067 24 l117 0 0 148 0
147 -208 -2 c-114 -1 -267 -2 -340 -2 -108 -1 -134 -4 -138 -16 -4 -8 -14 -15
-23 -15 -9 0 -21 -4 -26 -9 -15 -14 -75 -24 -75 -13 0 6 12 20 28 31 l27 20
-67 1 c-36 0 -72 2 -80 3 -7 2 -38 1 -69 -2z m733 -83 c-12 -14 -60 -39 -107
-55 -16 -6 -39 -14 -50 -19 -19 -8 -20 -7 -2 11 44 44 193 103 159 63z"/>
<path d="M9547 16893 c-4 -3 -7 -15 -7 -25 0 -16 6 -19 43 -16 35 2 43 7 45
26 3 20 -1 22 -36 22 -21 0 -42 -3 -45 -7z"/>
<path d="M9210 16745 c0 -22 4 -25 35 -25 31 0 35 3 35 25 0 22 -4 25 -35 25
-31 0 -35 -3 -35 -25z"/>
<path d="M9158 16679 c-10 -5 -18 -19 -18 -29 0 -17 7 -20 44 -20 76 0 102 25
51 48 -31 14 -54 15 -77 1z"/>
<path d="M11386 16641 c-29 -4 -51 -12 -54 -20 -7 -20 104 -10 126 12 19 19
20 19 -72 8z"/>
<path d="M19420 16571 c0 -5 9 -7 20 -4 11 3 20 7 20 9 0 2 -9 4 -20 4 -11 0
-20 -4 -20 -9z"/>
<path d="M22601 15554 c-16 -36 2 -94 30 -94 19 0 22 7 34 83 6 36 5 37 -23
37 -21 0 -32 -7 -41 -26z"/>
<path d="M2424 15505 c-4 -8 -3 -26 0 -40 5 -20 13 -25 36 -25 28 0 30 2 30
40 0 38 -2 40 -30 40 -18 0 -33 -6 -36 -15z"/>
<path d="M22514 15505 c-4 -8 -3 -26 0 -40 11 -44 66 -26 66 21 0 33 -55 49
-66 19z"/>
<path d="M2330 15376 c0 -60 5 -84 26 -125 14 -29 28 -68 31 -89 l6 -37 -24
28 c-14 15 -28 27 -32 27 -4 0 -7 -261 -7 -580 l0 -580 161 0 161 0 -6 83
c-16 193 -26 446 -26 648 0 119 -3 243 -6 277 -7 60 -7 60 -32 51 -18 -7 -33
-7 -47 1 -21 12 -55 99 -55 143 0 17 -5 27 -15 27 -8 0 -15 8 -15 18 0 9 -11
31 -25 47 -13 17 -28 35 -33 40 -5 6 -12 23 -16 38 -5 20 -3 27 8 27 10 0 13
6 10 15 -4 9 -19 15 -35 15 l-29 0 0 -74z"/>
<path d="M22643 15435 c-7 -7 -15 -26 -19 -41 -4 -16 -11 -33 -16 -39 -5 -5
-20 -23 -33 -40 -14 -16 -25 -38 -25 -47 0 -10 -7 -18 -15 -18 -10 0 -15 -10
-15 -27 0 -44 -34 -131 -55 -143 -14 -8 -29 -8 -47 -1 -25 9 -25 9 -32 -51 -3
-34 -6 -156 -6 -272 0 -208 -14 -581 -26 -683 l-5 -53 160 0 161 0 0 580 c0
319 -3 580 -7 580 -4 0 -18 -12 -32 -27 l-24 -28 6 37 c3 21 17 60 31 89 21
41 26 65 26 125 0 74 -5 85 -27 59z"/>
<path d="M2567 15207 c-27 -19 -12 -77 19 -77 20 0 24 5 24 29 0 33 -9 61 -19
61 -4 0 -15 -6 -24 -13z"/>
<path d="M22396 15204 c-3 -9 -6 -29 -6 -45 0 -24 4 -29 24 -29 31 0 46 58 19
77 -22 17 -30 16 -37 -3z"/>
<path d="M21316 14156 c-10 -18 -29 -39 -42 -45 -13 -6 -24 -15 -24 -21 0 -22
-17 -8 -30 25 -17 43 -39 45 -65 5 -27 -40 -44 -45 -70 -20 -38 36 -84 25
-116 -27 l-22 -35 -16 26 c-27 45 -61 45 -61 0 0 -35 -16 -30 -36 11 -13 29
-22 35 -48 35 -17 0 -42 -7 -54 -16 -19 -13 -28 -13 -59 -3 -34 11 -38 10 -60
-15 -29 -34 -29 -44 0 -51 37 -8 1175 -1 1184 8 4 5 0 13 -10 18 -9 6 -17 21
-17 34 0 35 -25 31 -42 -5 -16 -37 -22 -38 -37 -2 -7 16 -25 33 -43 40 -18 6
-32 11 -32 9 -1 -1 -7 -12 -13 -24 -7 -13 -13 -32 -13 -43 0 -11 -4 -20 -10
-20 -5 0 -10 8 -10 18 0 9 -14 32 -30 50 -25 27 -34 31 -49 22 -11 -5 -36 -10
-55 -10 -31 0 -38 4 -50 35 -19 45 -46 46 -70 1z"/>
<path d="M2955 14123 c-24 -51 -49 -82 -66 -83 -14 0 -49 39 -49 56 0 11 -9
30 -19 44 -18 22 -21 23 -46 10 -35 -19 -117 -108 -110 -119 3 -6 228 -10 545
-10 525 -1 540 0 540 18 0 20 -25 51 -40 51 -5 0 -16 18 -26 40 -10 22 -24 40
-32 40 -18 0 -42 -25 -42 -45 0 -20 -26 -31 -43 -17 -6 5 -28 12 -48 16 -33 6
-40 3 -67 -29 -17 -19 -33 -35 -36 -35 -2 0 -7 14 -11 31 -12 54 -74 59 -95 8
-16 -38 -26 -37 -40 6 -10 31 -40 50 -40 26 0 -5 -11 -16 -25 -25 -33 -22 -65
-8 -90 38 -19 35 -35 47 -35 25 0 -6 -7 -17 -15 -25 -13 -14 -17 -14 -30 0 -8
8 -15 19 -15 25 0 6 -8 11 -19 11 -13 0 -27 -17 -46 -57z"/>
<path d="M5750 14170 c0 -18 -2 -25 -16 -59 -8 -18 -14 -42 -14 -52 0 -11 -6
-19 -12 -19 -9 0 -8 -4 2 -10 18 -11 237 -14 243 -2 2 4 -10 34 -27 67 -26 51
-36 61 -61 63 -16 2 -34 8 -39 13 -13 12 -76 12 -76 -1z"/>
<path d="M5207 14130 c-15 -16 -32 -30 -37 -30 -5 0 -12 -11 -16 -25 -4 -18
-13 -25 -29 -25 -13 0 -25 5 -27 11 -2 6 -19 11 -38 12 -31 2 -35 -1 -35 -23
l0 -25 293 -2 c255 -1 292 0 292 14 0 24 -62 103 -81 103 -18 0 -22 -9 -34
-67 -4 -18 -12 -33 -18 -33 -29 0 -57 13 -57 26 0 8 -4 14 -10 14 -5 0 -10 7
-10 15 0 20 -10 19 -35 -5 -28 -26 -47 -19 -79 31 -15 21 -32 39 -39 39 -8 0
-26 -13 -40 -30z"/>
<path d="M5518 14153 c7 -3 16 -2 19 1 4 3 -2 6 -13 5 -11 0 -14 -3 -6 -6z"/>
<path d="M4848 14141 c10 -6 7 -10 -12 -15 -14 -3 -26 -11 -26 -16 0 -5 -7 -7
-15 -4 -11 5 -15 -1 -15 -20 0 -33 -13 -33 -37 0 -17 22 -22 24 -47 14 -20 -7
-32 -8 -40 0 -27 27 -66 -8 -66 -60 0 -18 10 -19 183 -19 100 0 189 4 197 9 8
5 10 10 4 10 -5 0 -18 18 -28 40 -11 26 -24 40 -36 40 -10 0 -25 7 -34 15 -8
8 -21 15 -28 15 -11 0 -11 -2 0 -9z"/>
<path d="M19187 14134 c-4 -4 -23 -7 -43 -8 -33 -1 -40 -6 -61 -45 -12 -24
-20 -47 -17 -52 6 -11 174 -12 191 -1 8 5 8 15 -2 40 -8 18 -15 36 -16 40 -7
23 -39 39 -52 26z"/>
<path d="M21890 14118 c-8 -13 -20 -35 -27 -50 -7 -16 -18 -28 -25 -29 -40 -3
49 -17 112 -18 85 -1 104 6 93 35 -14 39 -33 49 -66 36 -26 -10 -32 -9 -43 6
-7 9 -14 23 -14 30 0 19 -14 14 -30 -10z"/>
<path d="M3795 14118 c-2 -7 -5 -24 -8 -38 -2 -14 -6 -32 -8 -40 -3 -11 7 -16
39 -18 48 -4 51 2 25 65 -17 42 -40 56 -48 31z"/>
<path d="M19705 14081 c-29 -58 -26 -61 71 -61 l64 0 0 29 c0 24 -4 28 -19 24
-13 -3 -24 4 -37 26 -26 45 -49 40 -79 -18z"/>
<path d="M6033 14102 c-6 -4 -19 -21 -27 -37 -14 -27 -14 -30 2 -37 9 -4 56
-7 105 -7 69 -1 87 2 87 13 0 8 -4 18 -10 21 -5 3 -10 14 -10 25 0 24 -31 36
-42 15 -11 -19 -32 -19 -48 0 -13 16 -38 19 -57 7z"/>
<path d="M20105 14098 c-11 -6 -27 -14 -35 -18 -8 -4 -16 -19 -18 -34 -3 -26
-3 -26 67 -26 88 0 101 5 101 41 0 20 -4 27 -14 23 -7 -3 -16 2 -19 10 -7 18
-52 20 -82 4z"/>
<path d="M20478 14082 c-42 -43 -37 -62 16 -62 25 0 47 3 50 8 9 15 -10 77
-24 79 -8 2 -27 -10 -42 -25z"/>
<path d="M22175 14079 c-24 -45 -14 -59 43 -59 27 0 51 3 55 6 9 9 -4 35 -14
28 -5 -3 -9 0 -9 5 0 16 -33 51 -47 51 -7 0 -20 -14 -28 -31z"/>
<path d="M4467 14093 c-4 -3 -7 -21 -7 -40 0 -33 1 -33 45 -33 38 0 45 3 45
19 0 11 -13 29 -29 40 -31 22 -43 25 -54 14z"/>
<path d="M6226 14083 c-4 -8 -6 -26 -6 -39 0 -22 4 -24 50 -24 42 0 50 3 50
18 0 38 -82 77 -94 45z"/>
<path d="M19438 14081 c-9 -11 -18 -28 -20 -38 -2 -15 5 -19 40 -21 l44 -3 -7
33 c-4 18 -9 36 -12 41 -8 13 -28 7 -45 -12z"/>
<path d="M20260 14074 c-18 -47 -8 -54 75 -54 72 0 75 1 75 23 0 40 -23 61
-56 52 -33 -9 -32 -9 -61 0 -19 5 -25 1 -33 -21z"/>
<path d="M4203 14077 c-21 -11 -36 -41 -25 -51 7 -8 171 -7 199 0 21 6 21 7 6
30 -16 25 -43 33 -43 13 0 -15 -83 -5 -88 10 -4 13 -19 12 -49 -2z"/>
<path d="M3921 14058 c-12 -31 -6 -38 32 -38 50 0 63 13 41 39 -25 28 -62 28
-73 -1z"/>
<path d="M18909 14059 c-9 -17 -8 -23 2 -30 28 -17 54 0 44 30 -8 27 -31 27
-46 0z"/>
<path d="M6397 14063 c-8 -18 -1 -38 17 -41 24 -5 38 10 30 31 -6 17 -40 24
-47 10z"/>
<path d="M18708 14050 c-15 -17 -15 -19 7 -24 31 -8 58 3 51 21 -3 8 -6 17 -6
19 0 11 -37 0 -52 -16z"/>
<path d="M18823 14054 c-7 -20 9 -36 29 -29 10 4 14 14 11 26 -6 23 -31 25
-40 3z"/>
<path d="M19600 14045 c0 -17 5 -25 13 -22 6 2 12 12 12 22 0 10 -6 20 -12 23
-8 2 -13 -6 -13 -23z"/>
<path d="M6480 14040 c0 -5 9 -10 20 -10 11 0 20 5 20 10 0 6 -9 10 -20 10
-11 0 -20 -4 -20 -10z"/>
<path d="M19920 14040 c0 -5 12 -10 28 -10 21 0 24 2 12 10 -20 13 -40 13 -40
0z"/>
<path d="M20675 12638 c-70 -24 -175 -71 -175 -79 0 -4 -9 -11 -21 -14 -32
-10 -141 -127 -169 -181 -14 -27 -28 -50 -32 -52 -5 -2 -8 -14 -8 -26 0 -12
-4 -26 -9 -31 -40 -45 -55 -259 -25 -345 27 -76 49 -126 78 -178 21 -36 90
-121 100 -122 5 0 19 -11 32 -25 35 -38 160 -99 240 -118 40 -9 101 -17 137
-17 62 0 179 21 215 39 9 4 39 19 66 32 127 61 235 187 285 333 27 78 31 103
31 197 0 93 -4 120 -30 196 -16 48 -34 89 -40 91 -5 2 -10 12 -10 21 0 17 -72
106 -114 140 -10 9 -33 28 -50 44 -17 15 -54 36 -83 47 -29 11 -61 24 -70 29
-63 31 -277 43 -348 19z"/>
<path d="M4165 12598 c-74 -26 -182 -74 -205 -93 -50 -40 -160 -158 -166 -179
-4 -12 -10 -23 -14 -26 -4 -3 -20 -39 -36 -80 -27 -70 -29 -85 -29 -212 0 -96
4 -141 13 -150 6 -6 12 -20 12 -31 0 -23 53 -132 85 -172 86 -113 209 -193
352 -230 107 -28 256 -15 366 33 20 9 37 19 37 24 0 4 7 8 15 8 23 0 71 33
139 95 60 55 136 182 136 226 0 11 3 19 8 19 11 0 32 119 32 180 0 63 -21 190
-32 190 -4 0 -8 9 -8 20 0 33 -44 111 -100 179 -82 98 -186 162 -326 200 -50
13 -238 13 -279 -1z"/>
<path d="M2179 9965 c-3 -2 -217 -5 -477 -6 l-472 -2 0 -149 0 -148 315 0
c302 0 315 1 333 20 22 24 129 80 151 80 22 0 71 44 71 63 0 9 13 18 33 22 49
11 97 36 97 51 0 8 8 14 18 14 18 0 42 18 42 32 0 14 -100 35 -111 23z"/>
<path d="M5338 9960 c-120 -11 -145 -18 -173 -46 -18 -18 -23 -31 -19 -52 4
-21 0 -30 -17 -41 -109 -66 -247 -120 -303 -118 -23 0 -41 -4 -44 -11 -2 -7
-15 -12 -28 -12 -13 0 -24 -4 -24 -10 0 -5 -19 -9 -42 -9 -24 1 -35 3 -25 6 9
2 17 8 17 13 0 4 15 11 33 14 33 6 77 35 106 70 42 50 76 75 138 101 38 16 70
31 73 35 14 16 62 40 82 41 l23 0 -23 10 c-18 7 -1047 6 -1192 -1 -14 -1 -52
2 -86 6 -68 7 -166 -9 -188 -32 -8 -8 -29 -17 -45 -20 -17 -4 -31 -10 -31 -14
0 -5 -14 -13 -30 -19 -17 -5 -33 -17 -36 -26 -3 -8 -13 -15 -22 -15 -22 0 -82
-23 -82 -31 0 -4 -11 -10 -25 -13 -14 -4 -25 -10 -25 -15 0 -5 -22 -17 -50
-26 -27 -9 -50 -20 -50 -25 0 -4 -16 -11 -35 -14 -19 -4 -35 -11 -35 -16 0 -6
-7 -10 -15 -10 -8 0 -15 -4 -15 -10 0 -6 -23 -9 -52 -9 -29 1 -41 4 -25 6 15
2 27 8 27 13 0 5 16 14 35 20 19 6 35 16 35 21 0 5 7 9 15 9 8 0 15 5 15 10 0
6 9 10 20 10 11 0 20 4 20 9 0 5 11 12 25 15 14 4 25 11 25 16 0 6 5 10 11 10
7 0 19 8 28 18 15 18 34 25 103 39 14 3 35 13 45 22 10 9 26 20 35 24 12 4 17
14 14 29 -3 22 -6 23 -122 23 l-119 0 -92 -47 c-51 -26 -102 -56 -114 -67 -12
-11 -43 -23 -68 -26 -25 -3 -54 -8 -63 -10 -55 -11 30 46 126 85 33 13 68 32
78 42 17 17 17 18 -7 24 -14 3 -96 5 -184 3 -147 -4 -161 -6 -178 -25 -10 -11
-29 -23 -43 -26 -14 -3 -34 -9 -45 -14 -18 -7 -18 -6 -6 9 7 9 20 17 27 17 8
0 14 5 14 10 0 6 8 10 18 10 15 1 15 2 -2 12 -29 16 -135 2 -169 -23 -16 -11
-63 -39 -105 -61 -42 -22 -79 -43 -82 -48 -8 -12 -98 -40 -130 -40 -17 0 -30
-3 -30 -8 0 -4 -20 -18 -45 -31 -25 -13 -45 -30 -45 -37 0 -7 -9 -16 -20 -19
-50 -16 -11 -25 110 -25 l130 0 0 -87 c0 -49 3 -158 5 -243 7 -189 13 -944 14
-1558 l1 -452 1839 2 c1012 2 1842 6 1846 10 4 4 -12 27 -35 52 -24 25 -48 56
-54 68 -14 28 -41 34 -61 15 -11 -12 -12 -17 -2 -20 6 -3 3 -6 -7 -6 -11 -1
-17 -4 -13 -7 3 -3 -3 -15 -13 -27 l-20 -20 -45 23 c-36 18 -47 21 -59 11 -8
-7 -21 -9 -27 -5 -8 5 -9 3 -4 -6 6 -9 2 -10 -16 -5 -13 4 -28 11 -33 15 -4 5
-21 4 -36 -2 -19 -6 -35 -6 -49 1 -11 6 -33 11 -50 11 -16 0 -31 5 -33 12 -7
21 -38 -1 -44 -32 -5 -24 -9 -27 -18 -18 -40 46 -63 59 -89 49 -17 -7 -27 -18
-27 -31 0 -20 -25 -38 -37 -27 -3 3 -8 21 -12 39 -4 20 -14 34 -25 36 -22 5
-56 -25 -56 -50 0 -10 -7 -21 -15 -24 -8 -4 -15 -15 -15 -25 0 -10 -3 -19 -6
-19 -8 0 -61 57 -66 70 -2 6 -12 12 -23 15 -11 2 -30 7 -41 10 -13 4 -25 2
-30 -6 -5 -9 -2 -10 10 -6 12 5 16 3 13 -5 -2 -8 -18 -12 -41 -10 -24 2 -35
-1 -34 -9 2 -6 -3 -14 -9 -16 -8 -3 -13 4 -13 19 0 27 -37 68 -61 68 -8 0 -20
-5 -26 -11 -8 -8 -17 -8 -33 1 -26 14 -50 7 -50 -16 0 -33 -34 -93 -53 -94
-18 0 -54 31 -73 65 -20 36 -42 42 -65 18 l-22 -22 -20 25 c-12 16 -27 24 -42
22 -12 -1 -30 4 -39 11 -15 13 -19 13 -27 0 -5 -8 -12 -26 -16 -41 -7 -36 -18
-35 -33 2 -9 21 -19 30 -35 30 -13 0 -25 7 -29 15 -6 17 -51 21 -61 5 -3 -5
-20 -13 -38 -18 -21 -5 -33 -16 -37 -32 -11 -49 -37 -24 -54 53 -6 25 -36 40
-36 17 0 -5 -11 -12 -25 -16 -14 -3 -25 -10 -25 -15 0 -16 -22 -9 -41 14 -18
20 -20 21 -29 5 -14 -23 -32 -23 -53 2 -20 23 -37 26 -37 6 0 -10 -16 -17 -47
-21 -27 -3 -55 -7 -63 -8 -8 -1 -16 -14 -18 -29 -2 -14 -10 -29 -19 -32 -17
-7 -42 20 -43 46 0 9 -4 20 -10 23 -5 3 -10 15 -10 26 0 27 -28 24 -52 -6 -24
-31 -42 -31 -79 0 -26 21 -38 24 -95 22 -61 -3 -83 -13 -84 -39 0 -4 -15 -2
-32 3 -61 17 -80 11 -124 -37 -39 -41 -64 -50 -64 -22 0 5 -9 23 -21 39 -15
22 -28 29 -54 29 -27 0 -37 -6 -54 -34 -27 -43 -51 -54 -51 -24 0 25 -73 98
-98 98 -11 0 -25 -18 -37 -46 -11 -26 -25 -56 -30 -68 -12 -24 -45 -34 -45
-14 0 7 -11 29 -24 48 -18 27 -25 54 -30 120 -5 67 -22 546 -25 728 -1 39 -31
46 -31 7 0 -30 -16 -33 -25 -5 -3 11 -11 20 -16 20 -21 0 -45 100 -26 112 21
13 37 9 37 -11 0 -23 25 -51 45 -51 11 0 14 93 19 513 3 281 9 548 13 591 7
69 10 77 22 63 15 -19 71 -23 71 -6 0 15 39 49 57 49 8 0 11 -4 8 -10 -9 -14
23 -70 40 -70 8 0 15 7 15 15 0 8 5 15 10 15 6 0 10 7 10 16 0 11 6 14 21 9
11 -4 37 -8 58 -10 39 -2 121 -42 121 -57 0 -4 9 -8 20 -8 11 0 20 4 20 8 0 5
11 14 24 21 13 7 31 29 41 49 10 21 20 31 22 25 3 -7 12 -13 20 -13 8 0 24
-11 35 -25 23 -30 32 -26 54 21 11 23 22 33 31 30 8 -4 21 -6 29 -6 8 0 14 -9
14 -20 0 -16 7 -20 30 -20 17 0 30 -4 30 -10 0 -12 37 -50 48 -50 5 0 16 18
26 40 15 35 20 39 37 30 11 -6 23 -8 28 -5 15 9 61 -13 93 -45 35 -36 53 -38
80 -7 10 12 21 18 24 12 4 -9 133 -13 159 -5 19 6 105 -24 105 -37 0 -19 17
-16 30 5 8 12 13 13 16 5 8 -18 44 -16 44 1 0 16 27 30 55 27 11 0 25 2 31 6
13 10 44 72 44 90 0 21 11 16 43 -22 22 -27 32 -32 38 -23 6 9 9 6 9 -10 0
-34 29 -72 55 -72 18 0 25 7 30 33 9 42 35 97 46 97 5 0 9 -10 9 -22 0 -13 9
-34 20 -48 11 -14 20 -31 20 -38 0 -35 58 -56 79 -29 46 57 74 87 81 87 5 0
21 -22 37 -50 24 -43 53 -66 53 -42 0 14 57 42 86 42 28 0 115 28 124 40 11
15 62 20 77 8 22 -18 41 -18 47 -1 5 12 10 12 37 -4 30 -17 31 -17 44 1 8 10
12 23 9 27 -3 5 2 9 11 9 8 0 18 -8 22 -17 11 -31 46 -63 68 -63 16 0 25 9 32
33 8 27 13 32 36 29 27 -3 62 20 50 32 -4 3 -1 6 6 6 19 0 41 -26 41 -49 0
-12 4 -21 8 -21 5 0 14 -11 20 -25 15 -34 37 -32 52 5 10 24 17 29 36 24 17
-4 26 -1 30 10 5 13 9 12 26 -9 22 -28 39 -25 33 6 -2 11 2 22 10 25 11 4 12
11 5 24 -9 17 -4 30 11 30 4 0 10 -9 14 -19 3 -11 15 -23 26 -26 11 -4 19 -15
19 -29 0 -33 23 -50 49 -37 11 6 29 11 40 11 12 0 21 4 21 10 0 17 64 80 81
80 9 0 22 -14 29 -31 11 -25 17 -29 37 -24 17 4 32 -2 56 -25 38 -36 50 -37
65 -7 8 17 11 18 11 5 1 -10 5 -18 10 -18 5 0 12 -11 15 -25 8 -32 34 -32 46
0 8 22 13 24 30 15 12 -6 24 -19 27 -28 10 -27 35 -52 52 -52 10 0 21 13 26
33 10 31 11 32 80 37 l70 5 9 78 8 77 91 0 c94 0 131 13 183 64 33 33 110 76
137 76 9 0 17 5 17 10 0 6 7 10 15 10 8 0 15 4 15 10 0 13 163 90 192 90 13 0
30 5 38 10 40 26 -28 30 -535 29 -286 0 -648 -1 -805 -1 -157 0 -298 0 -315
-1 -16 0 -61 2 -100 5 -38 4 -109 3 -157 -2z m-1217 -80 c5 0 9 -9 9 -19 0
-11 6 -22 13 -24 18 -8 -44 -6 -72 2 -14 4 -26 11 -28 17 -4 13 37 34 55 28 8
-2 18 -4 23 -4z m-362 -25 c-8 -9 -33 -18 -55 -20 -21 -2 -31 -2 -21 1 9 3 17
9 17 14 0 9 23 17 55 19 17 1 18 -1 4 -14z m2840 -19 c-9 -10 -59 -14 -59 -6
0 5 12 10 28 12 28 4 39 1 31 -6z m142 -4 c-8 -3 -27 -17 -43 -33 -35 -33 -88
-55 -88 -35 0 14 45 56 60 56 6 0 10 4 10 9 0 5 12 11 28 13 30 4 53 -3 33
-10z m-611 1 c-8 -4 -22 -14 -31 -25 -9 -10 -32 -21 -50 -24 -33 -5 -33 -5
-14 11 11 9 30 18 43 22 12 3 22 9 22 14 0 5 10 9 23 8 15 0 17 -2 7 -6z m370
-39 c0 -21 -112 -84 -148 -84 -12 0 -11 5 6 20 12 12 22 25 22 29 0 5 10 12
23 16 12 5 31 11 42 15 26 10 55 12 55 4z m-4056 -19 c-10 -8 -28 -14 -39 -14
-17 1 -17 2 -2 6 9 2 17 9 17 14 0 5 10 9 22 9 21 0 21 0 2 -15z m400 -20 c-4
-8 -14 -15 -23 -15 -9 0 -21 -4 -26 -9 -10 -9 -74 -26 -65 -18 9 9 103 57 111
57 5 0 6 -7 3 -15z m1399 -3 c-23 -9 -45 -20 -49 -24 -4 -5 -14 -8 -23 -8 -9
0 2 12 24 25 22 14 51 25 65 24 21 0 18 -3 -17 -17z m-1729 -12 c-12 -5 -25
-13 -29 -19 -3 -6 -16 -11 -28 -10 -15 0 -17 2 -7 6 8 4 21 12 28 20 7 7 23
13 35 12 l22 0 -21 -9z m136 -20 c0 -5 -5 -10 -12 -10 -6 0 -35 -12 -64 -26
-29 -14 -60 -24 -70 -22 -13 2 -10 6 12 17 64 29 90 40 109 44 11 3 21 5 23 6
1 0 2 -3 2 -9z m3914 -8 c-36 -32 -73 -52 -99 -52 -23 0 -25 2 -12 15 15 14
102 53 121 54 6 1 1 -7 -10 -17z m-234 -17 c0 -8 -7 -15 -15 -15 -8 0 -15 -4
-15 -10 0 -5 -19 -9 -42 -9 -35 2 -37 3 -13 6 16 3 32 8 35 12 4 7 40 30 48
31 1 0 2 -7 2 -15z m-3620 -5 c-8 -5 -24 -10 -35 -10 -17 0 -17 2 -5 10 8 5
24 10 35 10 17 0 17 -2 5 -10z m1727 -6 c-3 -3 -12 -4 -19 -1 -8 3 -5 6 6 6
11 1 17 -2 13 -5z m1371 -19 c-20 -14 -45 -25 -55 -24 -12 0 -14 2 -4 6 11 5
11 7 0 14 -10 6 -8 9 9 9 12 0 22 5 22 10 0 6 15 10 32 10 l33 0 -37 -25z
m-630 -2 c-10 -2 -26 -2 -35 0 -10 3 -2 5 17 5 19 0 27 -2 18 -5z m-2718 -873
c0 -5 -4 -10 -10 -10 -5 0 -10 5 -10 10 0 6 5 10 10 10 6 0 10 -4 10 -10z m0
-30 c0 -5 -6 -10 -14 -10 -8 0 -16 -6 -19 -12 -2 -7 -8 -10 -12 -6 -4 4 -2 14
5 23 14 17 40 20 40 5z m120 -150 c0 -5 -4 -10 -10 -10 -5 0 -10 5 -10 10 0 6
5 10 10 10 6 0 10 -4 10 -10z m17 -52 c-3 -8 -6 -5 -6 6 -1 11 2 17 5 13 3 -3
4 -12 1 -19z m-74 -523 c2 -14 2 -27 -1 -30 -8 -8 -42 47 -42 69 0 18 1 18 19
2 10 -9 21 -28 24 -41z"/>
<path d="M14535 9960 c-90 -6 -155 -24 -155 -41 0 -5 -17 -9 -37 -9 l-38 1 33
14 c44 19 32 35 -26 35 -34 0 -58 -7 -85 -25 -53 -37 -124 -65 -161 -65 -20 0
-37 -7 -46 -20 -8 -11 -19 -20 -25 -20 -5 0 -24 -13 -42 -28 -17 -15 -40 -34
-50 -43 -24 -20 -119 -65 -156 -74 -48 -12 -29 -25 37 -25 44 0 69 5 80 15 8
8 17 15 20 15 6 0 129 55 158 71 10 5 25 9 33 9 8 0 15 5 15 10 0 6 6 10 14
10 7 0 19 7 26 15 7 8 16 15 21 15 5 0 9 -7 9 -15 0 -8 -6 -15 -14 -15 -7 0
-19 -7 -26 -15 -7 -8 -19 -15 -28 -15 -8 0 -31 -12 -51 -27 -19 -16 -51 -38
-71 -50 l-35 -23 1158 1 1158 0 -3 27 c-2 21 -11 29 -36 37 -19 5 -31 15 -30
23 3 16 63 38 127 48 30 5 45 12 48 25 3 10 25 26 49 36 24 10 44 21 44 25 0
11 68 38 96 38 13 0 35 -5 49 -12 21 -9 32 -8 61 5 88 42 30 48 -506 46 -810
-2 -817 -2 -838 -26 -11 -13 -24 -23 -30 -23 -6 0 -12 -3 -14 -7 -5 -14 -174
-93 -195 -93 -12 0 -24 -6 -26 -12 -4 -10 -6 -9 -6 1 -1 17 28 40 52 41 9 0
17 5 17 10 0 6 5 10 10 10 6 0 40 14 75 30 35 17 69 30 75 30 5 0 10 5 10 10
0 6 8 10 18 10 15 0 15 2 2 10 -9 7 -123 10 -300 9 -157 -1 -305 1 -330 3 -25
3 -85 2 -135 -2z m1147 -63 c-4 -17 -1 -18 29 -12 19 3 42 9 52 11 11 4 17 0
17 -11 0 -18 -23 -45 -38 -45 -5 0 -23 -7 -38 -15 -16 -8 -37 -15 -46 -15 -10
0 -18 -4 -18 -10 0 -5 -9 -10 -20 -10 -11 0 -20 7 -20 15 0 8 5 15 10 15 18 0
11 25 -11 39 l-22 13 24 22 c31 29 88 31 81 3z m134 -72 c-8 -8 -19 -15 -25
-15 -6 0 -11 -4 -11 -10 0 -5 -11 -10 -25 -10 -14 0 -25 3 -25 7 0 18 39 42
68 42 30 1 32 -1 18 -14z m-516 -31 c0 -12 -34 -33 -53 -34 -15 0 -16 2 -5 13
20 20 58 34 58 21z m667 -110 c-3 -3 -12 -4 -19 -1 -8 3 -5 6 6 6 11 1 17 -2
13 -5z"/>
<path d="M17500 9961 c-140 -6 -158 -8 -179 -28 -22 -21 -66 -35 -76 -25 -3 3
12 13 32 23 l38 17 -28 7 c-15 4 -119 6 -230 3 l-202 -3 -30 -31 c-35 -35
-128 -81 -194 -95 -25 -6 -64 -14 -86 -19 -22 -4 -41 -13 -43 -19 -2 -6 -11
-11 -21 -11 -9 0 -23 -9 -31 -20 -8 -12 -26 -20 -42 -20 -15 0 -37 -10 -50
-23 -13 -13 -41 -30 -63 -40 -39 -16 -31 -16 234 -14 209 1 275 5 279 15 2 6
13 11 25 11 17 -1 18 -2 5 -6 -10 -2 -18 -9 -18 -14 0 -14 629 -7 638 7 7 11
62 25 62 16 0 -3 -8 -11 -17 -18 -15 -11 -5 -13 70 -14 68 0 87 3 87 14 0 8
15 17 34 20 19 4 36 13 39 20 7 17 101 72 140 81 15 4 27 12 27 18 0 7 5 6 13
-2 10 -10 5 -18 -23 -42 -19 -16 -53 -36 -77 -45 -24 -9 -43 -21 -43 -25 0 -5
-8 -9 -17 -9 -10 0 -27 -7 -37 -15 -18 -13 23 -15 351 -15 l372 0 6 -57 c3
-32 7 -65 8 -73 2 -11 20 -16 72 -20 69 -5 70 -6 80 -37 5 -20 16 -33 26 -33
15 0 49 29 49 43 0 10 42 57 51 57 4 0 9 -12 11 -27 5 -43 31 -40 53 5 19 39
19 39 37 18 l17 -21 16 23 c9 12 23 22 31 22 8 0 14 5 14 10 0 6 9 10 21 10
11 0 17 -4 14 -10 -3 -5 0 -10 7 -10 8 0 20 16 27 35 8 24 19 35 32 35 10 0
19 -4 19 -9 0 -4 14 -22 30 -39 17 -18 30 -36 30 -42 0 -5 7 -10 15 -10 8 0
24 -6 35 -12 24 -15 53 -1 58 28 3 16 55 74 66 74 2 0 1 -12 -2 -26 -3 -19 -1
-25 7 -20 7 5 11 -2 11 -18 0 -35 20 -43 41 -18 14 18 18 19 23 7 3 -8 16 -15
29 -15 14 0 31 -9 39 -22 17 -25 47 -19 55 12 3 11 9 20 14 20 5 0 9 7 9 16 0
25 27 47 46 36 9 -5 17 -13 17 -18 1 -5 15 -8 31 -7 23 1 31 -4 39 -28 8 -19
18 -29 32 -29 22 0 58 32 68 63 9 24 35 21 39 -5 4 -30 28 -33 55 -8 20 18 23
18 31 4 10 -17 52 -11 52 7 0 5 16 9 35 9 22 0 35 -5 35 -13 0 -19 92 -48 128
-41 26 5 37 1 62 -25 18 -17 35 -31 38 -31 4 0 18 23 31 50 13 28 29 53 34 57
9 6 39 -24 82 -81 21 -28 49 -34 68 -13 19 19 52 95 48 110 0 4 6 10 15 14 16
6 36 -16 40 -44 7 -42 28 -83 42 -83 19 0 52 52 52 81 0 12 7 19 18 19 10 0
25 9 35 20 19 23 37 26 37 7 0 -18 31 -80 44 -90 6 -4 20 -6 31 -6 31 3 55
-11 55 -32 0 -22 35 -27 44 -6 3 8 8 7 16 -5 13 -22 30 -23 30 -3 0 8 7 16 15
16 28 3 33 4 41 12 11 11 64 8 64 -3 0 -6 19 -10 43 -10 78 1 126 -5 139 -17
18 -19 30 -16 64 16 41 38 136 57 153 29 6 -10 11 -27 11 -38 0 -26 15 -26 38
0 9 11 34 25 54 31 41 10 71 35 63 50 -4 5 3 9 13 9 18 0 26 -9 31 -35 2 -5
10 -14 18 -19 12 -7 22 -2 38 16 12 14 32 31 44 37 19 11 23 8 38 -23 9 -20
26 -37 40 -40 12 -4 23 -11 23 -16 0 -6 9 -10 20 -10 11 0 20 6 20 13 0 17 80
62 103 58 10 -1 25 3 33 9 8 7 14 9 14 6 0 -4 9 -2 20 4 23 12 50 -6 50 -34 0
-9 8 -16 20 -16 20 0 22 5 22 63 1 23 5 27 28 27 20 0 31 -7 41 -28 11 -21 21
-28 42 -27 16 0 34 8 41 17 21 29 36 -288 36 -759 0 -420 0 -431 19 -426 29 7
44 54 36 113 l-7 50 41 0 c39 0 41 -2 41 -30 0 -16 -5 -30 -11 -30 -8 0 -9
-11 -5 -32 7 -33 -17 -112 -41 -136 -7 -8 -18 -22 -23 -33 -6 -10 -20 -19 -30
-19 -11 0 -20 -1 -21 -2 0 -2 -5 -172 -10 -378 -5 -206 -12 -417 -15 -467 l-6
-93 156 0 156 0 1 498 c3 980 14 1816 25 1834 3 4 232 8 510 8 l504 0 0 150 0
151 -322 -2 c-315 -1 -324 -1 -368 -23 -25 -13 -63 -26 -85 -30 l-40 -7 27 25
c36 32 24 36 -104 36 -91 0 -105 -3 -149 -27 -27 -16 -49 -31 -49 -35 0 -5 -9
-8 -19 -8 -11 0 -23 -4 -26 -10 -3 -5 -16 -10 -27 -10 -28 0 -88 -22 -88 -32
0 -4 -9 -8 -19 -8 -11 0 -26 -7 -35 -15 -8 -8 -17 -15 -20 -15 -4 0 -20 -13
-38 -30 -17 -16 -37 -30 -44 -30 -7 0 -25 -6 -41 -14 -76 -38 -82 -40 -108
-28 -34 16 -56 15 -80 -4 -16 -12 -17 -17 -6 -23 9 -6 4 -12 -20 -20 -41 -14
-78 -14 -135 0 -40 10 -43 13 -27 24 10 7 42 18 71 25 30 7 78 25 108 41 29
16 62 29 72 29 10 0 22 3 26 7 16 17 225 83 262 83 8 0 25 10 38 23 13 12 33
30 45 40 12 10 19 22 16 27 -10 16 -917 8 -923 -7 -2 -7 -10 -13 -18 -13 -8 0
-14 -4 -14 -9 0 -11 -30 -19 -47 -14 -7 3 -13 11 -13 19 0 8 6 14 13 14 8 0 7
4 -3 10 -8 5 -50 10 -93 10 -60 0 -91 -6 -139 -25 -34 -14 -69 -25 -79 -25
-10 0 -21 -4 -24 -10 -13 -22 -35 -10 -35 19 0 17 -6 33 -12 38 -18 11 -525 4
-570 -8 -20 -5 -43 -15 -50 -22 -35 -34 -198 -82 -198 -58 0 6 16 26 34 45 24
23 31 36 22 39 -7 3 -335 6 -729 6 -721 1 -799 -2 -831 -35 -8 -8 -24 -14 -35
-14 -12 0 -21 -4 -21 -10 0 -5 -9 -10 -21 -10 -11 0 -29 -5 -41 -11 -11 -6
-22 -8 -26 -5 -9 10 35 46 56 46 10 0 27 6 37 14 18 13 16 15 -30 22 -28 4
-66 7 -85 7 -212 -3 -828 -3 -879 0 -36 3 -136 2 -221 -2z m2200 -37 c0 -12
-27 -31 -53 -36 -30 -6 -33 -3 -14 16 20 20 67 34 67 20z m1338 -38 c23 -12
23 -13 -30 -36 -64 -27 -88 -50 -88 -85 0 -38 -23 -40 -59 -5 -48 48 -47 49
74 116 46 26 71 28 103 10z m-1230 -7 c-3 -9 -18 -18 -110 -66 -16 -8 -28 -11
-28 -8 0 10 28 35 39 35 6 0 11 4 11 9 0 4 17 15 38 24 46 19 55 20 50 6z
m3622 0 c0 -6 -9 -13 -20 -16 -11 -3 -20 -9 -20 -14 0 -7 -91 -39 -113 -39 -5
0 -4 7 3 15 7 8 18 15 25 15 8 0 15 3 17 8 5 10 70 41 91 41 9 1 17 -4 17 -10z
m-4823 -5 c-3 -3 -12 -4 -19 -1 -8 3 -5 6 6 6 11 1 17 -2 13 -5z m993 -4 c0
-16 -50 -60 -85 -76 -33 -16 -67 -36 -75 -45 -3 -3 -31 -16 -62 -29 -32 -13
-58 -27 -58 -32 0 -4 -6 -8 -13 -8 -7 0 -18 -9 -25 -21 -13 -20 -41 -21 -159
-5 -20 3 -28 16 -10 16 10 0 17 5 17 10 0 6 10 10 23 10 45 0 132 32 158 59
38 39 82 71 96 71 7 0 13 4 13 9 0 5 12 11 28 14 15 3 50 12 77 21 61 18 75
19 75 6z m-2440 -18 c0 -4 -9 -14 -20 -22 -11 -8 -20 -20 -20 -26 0 -18 -85
-56 -137 -62 l-46 -5 19 26 c22 29 97 77 122 77 9 0 24 5 32 10 18 12 50 13
50 2z m3070 -11 c0 -5 -11 -11 -25 -13 -28 -6 -35 8 -7 15 28 8 32 7 32 -2z
m-1707 -8 c-7 -2 -19 -2 -25 0 -7 3 -2 5 12 5 14 0 19 -2 13 -5z m3392 -75
c-11 -6 -29 -19 -40 -28 -25 -22 -72 -33 -80 -20 -7 12 89 59 120 59 l20 0
-20 -11z m-2454 -79 c-18 -11 -43 -19 -55 -17 -18 3 -16 5 14 20 19 10 44 18
55 18 15 0 12 -5 -14 -21z m-974 5 c-3 -3 -12 -4 -19 -1 -8 3 -5 6 6 6 11 1
17 -2 13 -5z m4073 -896 c0 -6 7 -20 17 -30 9 -10 13 -21 8 -26 -4 -4 -10 -1
-12 6 -3 6 -10 12 -18 12 -7 0 -12 11 -12 25 0 14 3 25 8 25 5 0 9 -5 9 -12z
m-120 -178 c0 -5 -4 -10 -10 -10 -5 0 -10 5 -10 10 0 6 5 10 10 10 6 0 10 -4
10 -10z m-33 -52 c-3 -8 -6 -5 -6 6 -1 11 2 17 5 13 3 -3 4 -12 1 -19z m117
-512 c-21 -45 -37 -66 -53 -66 -28 0 2 88 43 123 19 17 21 18 24 2 2 -10 -4
-36 -14 -59z"/>
<path d="M7408 9953 c-14 -2 -40 -17 -57 -34 -17 -16 -35 -29 -40 -29 -5 0
-16 -6 -23 -12 -29 -28 -97 -68 -158 -95 -36 -15 -71 -33 -78 -40 -7 -7 -24
-16 -38 -19 -13 -3 -24 -10 -24 -15 0 -5 -6 -9 -12 -9 -7 0 -31 -9 -53 -19
l-40 -19 67 -1 c47 -1 71 3 82 14 8 8 19 15 25 15 5 0 16 6 23 13 7 6 29 20
48 29 39 20 72 40 80 49 3 3 26 14 52 25 27 10 48 22 48 27 0 4 9 7 21 7 11 0
29 5 40 11 18 9 19 8 11 -8 -6 -10 -41 -34 -79 -53 -37 -19 -69 -38 -71 -42
-2 -5 -10 -8 -18 -8 -8 0 -14 -4 -14 -8 0 -5 -10 -14 -22 -21 -103 -55 -134
-50 284 -51 322 0 379 2 392 15 8 8 17 15 21 15 15 0 150 85 171 107 12 12 26
23 33 23 6 0 11 5 11 10 0 6 7 10 15 10 14 0 63 26 75 40 3 3 22 16 43 29 41
25 48 41 17 41 -11 0 -20 -4 -20 -9 0 -5 -9 -11 -20 -14 -11 -3 -20 -1 -20 4
0 5 5 9 10 9 6 0 10 5 10 10 0 10 -730 12 -792 3z"/>
<path d="M8518 9953 c-20 -3 -28 -10 -28 -25 0 -22 35 -58 57 -58 7 0 13 -4
13 -10 0 -5 -11 -10 -25 -10 -14 0 -25 -4 -25 -10 0 -5 -7 -10 -16 -10 -9 0
-32 -16 -51 -35 -35 -35 -53 -44 -53 -25 0 6 3 10 8 10 4 0 5 21 3 46 l-3 46
-57 -4 c-62 -4 -99 -26 -178 -105 -23 -24 -46 -43 -52 -43 -10 0 -61 -46 -61
-55 0 -3 105 -5 234 -5 192 0 237 3 249 15 8 7 27 17 43 21 15 4 39 13 53 20
14 8 36 14 48 14 12 0 24 8 28 19 3 10 21 27 40 37 19 10 35 22 35 26 0 5 7 8
15 8 8 0 15 4 15 8 0 4 38 17 85 27 47 11 85 23 85 27 0 5 5 8 11 8 15 0 81
32 96 46 21 20 -8 24 -177 24 -175 0 -210 -4 -237 -29 -10 -9 -26 -20 -35 -24
-14 -5 -18 -1 -18 17 0 32 -28 40 -102 29z"/>
<path d="M9334 9946 c-11 -30 4 -48 37 -44 30 3 60 30 47 43 -3 3 -22 8 -42
12 -27 4 -37 2 -42 -11z"/>
<path d="M9608 9953 c-16 -2 -28 -9 -28 -14 0 -5 -7 -9 -15 -9 -8 0 -15 -4
-15 -10 0 -5 -9 -10 -20 -10 -11 0 -20 -4 -20 -10 0 -5 -6 -10 -14 -10 -8 0
-16 -5 -18 -10 -2 -6 -37 -24 -78 -40 -105 -42 -150 -64 -150 -72 0 -5 -8 -8
-19 -8 -10 0 -24 -7 -31 -14 -6 -8 -28 -20 -48 -27 -40 -13 -81 -39 -82 -51 0
-15 148 -9 163 7 8 7 28 17 43 21 16 4 34 10 39 14 14 11 95 23 95 15 0 -8
-19 -26 -50 -48 -23 -16 -5 -17 357 -17 292 0 385 3 395 13 29 28 116 76 156
87 23 6 42 15 42 20 0 6 6 10 14 10 8 0 21 7 30 15 8 8 25 16 38 17 13 2 29 9
36 16 16 14 42 16 42 2 0 -5 -9 -10 -20 -10 -11 0 -20 -4 -20 -10 0 -5 -7 -10
-15 -10 -8 0 -15 -3 -15 -8 0 -7 -33 -26 -102 -56 -20 -9 -40 -21 -43 -26 -8
-13 -72 -40 -96 -40 -10 0 -21 -4 -24 -10 -4 -7 128 -10 389 -10 337 0 397 2
410 15 8 8 19 15 25 15 5 0 16 6 23 13 7 6 39 25 71 41 31 15 57 32 57 37 0 5
10 9 23 9 12 0 31 7 41 15 11 8 30 15 43 15 13 0 23 5 23 10 0 6 9 10 21 10
11 0 28 4 38 10 10 5 41 18 70 29 68 27 68 6 0 -34 -50 -30 -99 -73 -99 -87 0
-5 11 -8 24 -8 13 0 26 -4 28 -9 2 -6 28 -3 63 5 103 26 135 32 135 23 0 -5
-8 -9 -18 -9 -10 0 -28 -9 -40 -20 -12 -11 -26 -20 -31 -20 -5 0 -16 -6 -23
-12 -7 -7 -29 -21 -48 -31 l-35 -17 74 4 c40 2 76 8 80 13 9 15 81 26 81 13 0
-5 -9 -10 -19 -10 -11 0 -23 -4 -26 -10 -4 -6 371 -9 1045 -7 990 2 1052 3
1061 20 6 9 16 17 24 17 7 0 26 10 42 23 15 12 42 29 58 37 17 8 36 21 43 28
7 6 19 12 26 12 7 0 21 8 32 18 10 10 42 24 69 31 28 8 54 18 60 22 5 5 16 9
25 9 9 0 33 15 53 34 30 27 34 35 21 40 -8 3 -109 6 -222 6 -154 -1 -217 -5
-247 -15 -49 -18 -46 -18 -42 -2 3 16 -240 21 -439 9 -130 -7 -143 -10 -175
-35 -35 -27 -69 -35 -69 -18 0 5 19 18 41 29 l41 21 -33 6 c-19 3 -329 5 -689
3 -652 -4 -655 -4 -704 -26 -57 -26 -76 -28 -76 -7 0 8 5 15 10 15 6 0 10 5
10 10 0 6 -128 10 -363 10 l-364 0 -66 -35 c-36 -19 -75 -35 -87 -35 -11 0
-29 -5 -40 -12 -36 -23 -34 2 3 36 20 19 37 36 37 40 0 3 -111 6 -248 6 -217
0 -254 -2 -299 -19 -50 -18 -51 -18 -56 0 -4 15 -14 19 -44 19 -45 0 -133 -27
-133 -41 0 -5 -9 -9 -21 -9 -11 0 -29 -5 -40 -11 -11 -5 -28 -9 -37 -7 -14 3
-13 8 9 30 15 15 24 29 21 32 -6 7 -101 5 -144 -1z m2782 -28 c0 -8 -6 -15
-14 -15 -8 0 -16 -5 -18 -11 -2 -6 -15 -9 -28 -6 -24 4 -24 4 8 18 17 7 32 17
32 21 0 4 5 8 10 8 6 0 10 -7 10 -15z m-560 -4 c0 -15 -51 -46 -97 -60 -24 -6
-43 -16 -43 -21 0 -6 -6 -10 -14 -10 -7 0 -24 -8 -37 -18 -25 -20 -109 -38
-109 -25 0 11 63 53 78 53 7 0 51 20 98 45 82 43 124 55 124 36z m1699 -22
c-25 -22 -45 -32 -93 -43 l-29 -7 29 23 c39 32 103 61 113 52 2 -2 -7 -13 -20
-25z m-219 -37 c0 -10 -60 -36 -67 -28 -4 3 1 6 10 6 10 0 17 4 17 9 0 5 8 12
18 14 9 3 18 5 20 6 1 0 2 -2 2 -7z m-1468 -19 c-7 -3 -18 -10 -25 -17 -6 -6
-31 -20 -54 -30 -23 -10 -50 -26 -60 -35 -22 -21 -123 -64 -130 -57 -17 17 75
72 150 90 15 3 27 11 27 16 0 6 9 10 20 10 11 0 20 4 20 9 0 11 52 31 60 23 3
-2 -1 -7 -8 -9z m-2239 -15 c-13 -6 -23 -15 -23 -20 0 -4 -9 -8 -20 -8 -11 0
-20 5 -20 10 0 6 7 10 15 10 8 0 15 5 15 10 0 6 12 10 28 9 27 0 27 -1 5 -11z
m1312 0 c-11 -7 -26 -18 -33 -25 -35 -35 -172 -94 -172 -75 0 31 144 109 205
111 l20 0 -20 -11z m-1048 -144 c-3 -3 -12 -4 -19 -1 -8 3 -5 6 6 6 11 1 17
-2 13 -5z m1853 -4 c-19 -13 -30 -13 -30 0 0 6 10 10 23 10 18 0 19 -2 7 -10z"/>
<path d="M9000 9800 c0 -28 3 -30 35 -30 32 0 35 2 35 30 0 28 -3 30 -35 30
-32 0 -35 -2 -35 -30z"/>
<path d="M8937 9733 c-4 -3 -7 -15 -7 -25 0 -15 8 -18 60 -18 61 0 73 9 46 36
-15 14 -87 20 -99 7z"/>
<path d="M11195 9703 c-58 -7 -75 -13 -75 -28 0 -11 11 -15 41 -15 39 0 99 26
99 42 0 8 -9 8 -65 1z"/>
<path d="M6436 7434 c-3 -9 -6 -31 -6 -50 0 -19 -3 -34 -6 -34 -8 0 -34 27
-34 35 0 10 -23 30 -44 38 -22 9 -66 -17 -66 -38 0 -29 -82 -7 -112 30 -16 20
-16 20 -26 -5 -6 -14 -20 -33 -31 -42 -12 -10 -21 -22 -21 -27 0 -15 75 -20
278 -20 214 -1 212 -1 171 65 -35 58 -90 83 -103 48z"/>
<path d="M21508 7333 c17 -2 47 -2 65 0 17 2 3 4 -33 4 -36 0 -50 -2 -32 -4z"/>
<path d="M21055 5936 c-96 -27 -195 -86 -274 -164 -43 -43 -82 -89 -86 -102
-4 -14 -11 -27 -15 -30 -4 -3 -20 -39 -36 -80 -27 -70 -29 -85 -29 -212 0 -96
4 -141 13 -149 6 -7 12 -22 12 -34 0 -51 104 -213 167 -261 21 -16 47 -36 57
-46 11 -10 29 -21 40 -24 12 -4 23 -10 26 -13 3 -4 23 -14 45 -24 112 -48 247
-59 365 -31 89 21 216 85 270 136 84 79 160 198 160 249 0 11 3 19 8 19 11 0
32 120 32 183 0 61 -18 167 -31 182 -5 5 -9 17 -9 26 0 28 -57 127 -107 186
-73 85 -230 183 -295 183 -9 0 -20 5 -23 10 -8 14 -239 10 -290 -4z"/>
<path d="M4545 5898 c-70 -24 -175 -71 -175 -79 0 -4 -9 -11 -21 -14 -32 -10
-141 -127 -169 -182 -14 -26 -28 -49 -32 -51 -5 -2 -8 -15 -8 -28 0 -13 -4
-24 -8 -24 -16 0 -35 -95 -39 -194 -4 -88 -1 -108 22 -175 29 -85 56 -144 68
-149 4 -2 7 -10 7 -17 0 -7 18 -33 40 -56 22 -24 40 -47 40 -51 0 -4 5 -8 11
-8 5 0 24 -13 42 -30 18 -16 46 -36 62 -44 98 -46 126 -57 180 -71 101 -26
271 -13 348 27 12 6 29 15 37 19 8 4 33 17 55 28 50 26 140 111 186 176 20 28
50 90 68 138 28 79 31 100 31 200 0 98 -4 122 -29 192 -16 44 -35 93 -44 109
-17 31 -91 121 -120 146 -10 8 -30 26 -45 39 -14 13 -51 35 -82 48 -30 13 -64
28 -75 32 -72 31 -281 42 -350 19z"/>
<path d="M2187 3261 c-303 -5 -379 -9 -386 -20 -7 -11 -9 -11 -13 0 -3 10 -30
15 -91 17 l-87 4 0 -151 0 -151 315 0 c306 0 316 1 336 21 11 11 35 27 52 35
18 9 43 22 57 29 14 8 35 15 48 15 12 0 22 4 22 8 0 5 11 15 25 22 14 7 25 21
25 31 0 12 14 20 47 28 26 7 56 22 68 34 11 12 32 28 48 36 46 24 33 36 -44
43 -24 3 -214 2 -422 -1z"/>
<path d="M5720 3260 c-118 -12 -142 -18 -169 -40 -17 -14 -22 -27 -19 -45 5
-26 -19 -65 -41 -65 -6 0 -11 -3 -11 -8 0 -4 -19 -16 -42 -26 -127 -56 -168
-69 -218 -71 -30 -1 -56 -7 -58 -14 -2 -6 -12 -11 -23 -11 -10 0 -19 -4 -19
-10 0 -5 -21 -9 -47 -9 -27 1 -40 3 -30 6 9 2 17 8 17 12 0 5 18 11 39 15 31
5 54 20 108 74 37 37 79 73 93 79 77 33 160 77 160 84 0 5 12 9 28 9 22 1 24
2 10 10 -10 6 -229 8 -595 6 -318 -3 -591 -5 -608 -4 -16 0 -68 0 -115 1 -73
1 -93 -3 -145 -27 -112 -51 -130 -61 -146 -78 -9 -10 -24 -18 -33 -18 -15 0
-54 -18 -66 -30 -3 -3 -36 -21 -75 -40 -38 -19 -71 -38 -73 -42 -2 -5 -13 -8
-24 -8 -22 0 -78 -30 -78 -42 0 -4 -26 -7 -57 -7 -32 1 -47 4 -34 6 13 3 31
11 38 19 8 8 22 14 31 14 10 0 29 11 44 25 15 14 36 25 48 25 11 0 20 5 20 10
0 6 6 10 13 10 7 0 30 16 50 35 20 19 45 35 55 35 25 0 91 25 111 42 9 8 24
17 33 20 21 9 30 48 12 55 -8 3 -65 3 -127 1 -92 -4 -120 -9 -157 -28 -25 -12
-56 -28 -70 -34 -14 -6 -27 -13 -30 -16 -30 -30 -100 -63 -148 -67 -54 -6 -56
-6 -39 11 10 10 55 34 100 53 89 37 130 69 103 79 -9 3 -90 4 -180 3 -151 -4
-166 -6 -188 -25 -13 -12 -32 -24 -43 -26 -11 -3 -28 -9 -37 -13 -32 -13 -19
10 17 29 19 10 32 23 29 27 -12 20 -152 1 -180 -24 -7 -6 -19 -17 -26 -22 -18
-14 -84 -45 -96 -45 -6 0 -12 -4 -14 -8 -7 -19 -104 -64 -150 -69 -26 -3 -48
-9 -48 -13 0 -4 -14 -13 -32 -21 -17 -7 -49 -30 -71 -51 -27 -25 -50 -38 -68
-38 -15 0 -31 -5 -35 -11 -7 -12 -6 -210 1 -414 2 -55 4 -218 4 -362 l1 -263
144 0 144 0 5 428 c3 235 9 441 12 459 6 28 9 30 25 21 14 -9 22 -9 34 1 12
10 18 9 35 -8 11 -11 23 -32 27 -46 8 -32 37 -33 52 0 19 41 50 32 73 -20 11
-25 23 -45 27 -46 4 0 18 -2 30 -3 13 -2 27 -7 30 -13 10 -14 68 -43 87 -43
21 0 65 48 65 70 0 30 33 34 56 7 35 -41 69 -59 98 -51 14 3 26 12 26 19 0 27
33 26 55 -1 28 -35 55 -29 70 16 l12 34 17 -27 c18 -26 46 -37 46 -17 0 16 27
12 67 -10 26 -14 41 -16 54 -10 10 6 28 10 41 10 13 0 29 9 36 20 14 24 47 26
56 5 3 -8 21 -22 40 -31 19 -10 37 -25 39 -35 4 -16 15 -19 76 -19 56 0 71 3
71 15 0 10 10 15 28 15 40 0 99 24 123 48 26 29 60 28 87 -3 12 -14 29 -25 37
-25 8 0 15 -4 15 -9 0 -16 110 -12 117 5 7 19 20 18 54 -7 37 -26 65 -20 109
21 40 37 49 37 88 0 30 -29 72 -41 72 -21 0 22 42 23 64 2 37 -35 59 -27 125
42 l27 28 43 -23 c24 -12 47 -31 52 -40 16 -30 45 -21 66 20 28 52 61 55 104
7 38 -41 67 -41 106 1 28 30 31 30 55 -1 24 -30 44 -32 53 -5 6 20 45 29 45
10 0 -21 29 -8 50 23 l22 33 130 -1 c102 0 131 -3 138 -15 12 -20 121 -21 136
-1 12 15 157 33 162 19 2 -4 9 -8 16 -8 7 0 22 -11 32 -25 26 -35 45 -31 72
15 23 41 38 44 75 12 9 -8 17 -11 17 -6 0 5 5 1 11 -8 12 -21 35 -23 46 -4 19
32 116 51 125 24 2 -6 12 -9 21 -5 14 5 17 22 17 112 l0 105 25 0 c14 0 25 4
25 9 0 5 14 14 30 20 24 8 30 7 30 -5 0 -7 -7 -14 -15 -14 -8 0 -15 -4 -15
-10 0 -16 126 -12 143 5 8 7 26 17 41 21 14 3 29 10 32 15 3 5 14 9 24 9 10 0
21 6 23 13 3 7 6 5 6 -5 1 -10 -2 -18 -6 -18 -5 -1 -21 -12 -38 -25 l-30 -25
127 0 c99 0 130 3 142 15 8 8 19 15 25 15 6 0 23 13 38 29 33 34 114 81 140
81 10 0 25 9 33 20 8 11 20 20 26 20 7 0 14 4 16 9 5 13 144 71 172 71 29 0
44 19 25 31 -8 5 -246 9 -529 8 -283 0 -645 -1 -805 -1 -159 0 -303 0 -320 -1
-16 0 -61 2 -100 5 -38 4 -108 2 -155 -2z m-1201 -107 l12 -26 -42 7 c-47 8
-59 13 -59 27 0 13 40 27 61 22 9 -3 22 -16 28 -30z m-349 23 c0 -11 -70 -46
-91 -46 l-23 0 23 17 c13 9 38 19 55 24 17 4 32 7 34 8 1 1 2 -1 2 -3z m2824
-31 c-4 -8 -11 -15 -18 -16 -6 0 -21 -2 -33 -3 -13 -2 -23 1 -23 6 0 4 10 8
23 8 12 0 29 5 37 10 20 13 20 13 14 -5z m118 -22 c-11 -10 -30 -26 -41 -35
-25 -21 -92 -50 -99 -43 -3 3 0 5 6 5 6 0 13 8 16 18 7 21 70 65 105 73 35 7
38 3 13 -18z m-595 11 c-3 -3 -12 -4 -19 -1 -8 3 -5 6 6 6 11 1 17 -2 13 -5z
m-33 -28 c-8 -20 -74 -36 -74 -18 0 8 45 29 67 31 7 1 10 -5 7 -13z m380 -34
c-27 -25 -120 -69 -129 -60 -7 6 41 58 54 58 6 0 11 4 11 9 0 9 26 16 74 20
16 1 14 -4 -10 -27z m-4038 3 c-8 -8 -24 -15 -35 -15 -12 0 -21 -4 -21 -10 0
-5 -5 -10 -12 -10 -25 0 42 47 70 49 10 1 10 -3 -2 -14z m402 -17 c-3 -7 -14
-14 -26 -16 -12 -2 -22 -8 -22 -13 0 -5 -9 -9 -21 -9 -17 0 -18 2 -7 13 14 13
57 35 71 36 5 1 7 -5 5 -11z m1382 -17 c-30 -15 -57 -27 -59 -25 -15 12 55 53
94 54 11 0 -4 -13 -35 -29z m-1712 -3 c-16 -5 -28 -14 -28 -19 0 -5 -10 -9
-22 -9 -21 0 -21 2 7 20 17 11 39 20 50 19 16 0 14 -3 -7 -11z m117 -25 c-11
-3 -22 -8 -25 -12 -11 -13 -82 -41 -103 -40 -17 1 -18 2 -4 6 9 2 17 8 17 13
0 4 16 11 35 14 19 4 35 11 35 16 0 6 15 9 33 9 21 -1 25 -3 12 -6z m94 -17
c-2 -2 -18 -7 -34 -10 l-30 -6 30 14 c26 12 46 14 34 2z m1708 -12 c-3 -3 -12
-4 -19 -1 -8 3 -5 6 6 6 11 1 17 -2 13 -5z m1389 -9 c-11 -8 -36 -14 -55 -14
-22 1 -28 3 -16 6 11 3 24 9 30 14 5 5 20 9 35 9 24 -1 24 -1 6 -15z m-643
-12 c-7 -2 -21 -2 -30 0 -10 3 -4 5 12 5 17 0 24 -2 18 -5z"/>
<path d="M14920 3261 c-93 -7 -142 -19 -155 -40 -3 -6 -21 -11 -38 -11 -32 0
-32 0 -8 13 45 23 37 37 -21 37 -40 0 -62 -6 -88 -24 -56 -38 -122 -66 -153
-66 -16 0 -37 -8 -46 -19 -9 -10 -25 -21 -36 -25 -11 -3 -34 -19 -52 -36 -18
-16 -35 -30 -38 -30 -3 0 -15 -8 -26 -19 -11 -10 -51 -29 -89 -42 -39 -13 -70
-27 -70 -31 0 -14 138 -9 147 5 4 7 33 24 63 36 153 65 210 93 210 103 0 5 7
8 15 8 8 0 12 -6 10 -12 -6 -16 -61 -48 -81 -48 -8 0 -14 -4 -14 -10 0 -5 -5
-10 -11 -10 -7 0 -19 -8 -28 -19 -9 -10 -34 -28 -56 -39 l-40 -21 1163 0 1164
0 -7 27 c-4 15 -7 27 -8 28 -1 1 -14 5 -29 10 -16 5 -29 14 -30 19 -4 15 61
42 120 50 41 5 52 10 52 24 0 12 17 26 48 41 26 12 63 30 82 41 40 21 82 24
109 8 31 -20 99 7 88 35 -7 17 -86 19 -572 16 -104 -1 -323 -2 -485 -3 l-295
-2 -33 -32 c-18 -17 -53 -39 -77 -49 -25 -9 -45 -20 -45 -24 0 -9 -80 -40
-103 -40 -9 0 -17 -4 -17 -10 0 -5 -4 -10 -10 -10 -5 0 -10 7 -10 15 0 8 7 15
15 15 8 0 15 5 15 10 0 6 6 10 14 10 7 0 33 10 57 23 24 13 65 32 92 42 26 10
47 22 47 26 0 5 8 9 18 9 15 0 15 2 2 10 -9 7 -126 10 -305 9 -159 -1 -306 1
-325 3 -19 3 -78 2 -130 -1z m1150 -63 c0 -20 17 -20 83 -2 10 3 17 0 17 -8 0
-19 -27 -40 -80 -62 -25 -10 -53 -22 -62 -27 -10 -5 -25 -9 -34 -9 -15 0 -15
2 -1 24 15 22 15 25 -8 42 -19 14 -21 20 -10 31 8 7 18 13 24 13 6 0 11 4 11
8 0 5 14 9 30 9 23 0 30 -5 30 -19z m118 -83 c-39 -27 -68 -32 -68 -14 0 20
34 38 70 39 l35 0 -37 -25z m-511 -30 c-14 -14 -36 -24 -49 -24 -17 1 -18 3
-5 6 9 2 17 8 17 13 0 4 11 11 25 14 14 4 25 12 25 18 0 6 3 8 7 4 4 -4 -5
-18 -20 -31z"/>
<path d="M17888 3261 c-141 -5 -159 -8 -180 -27 -23 -21 -78 -38 -78 -24 0 4
17 15 38 23 l37 15 -27 7 c-15 4 -119 5 -231 4 l-203 -4 -28 -28 c-35 -35
-145 -87 -198 -95 -21 -2 -41 -9 -44 -13 -3 -5 -18 -9 -34 -9 -16 0 -35 -7
-44 -15 -8 -8 -21 -15 -28 -15 -8 0 -24 -9 -36 -20 -12 -11 -30 -20 -41 -20
-11 0 -32 -11 -48 -24 -16 -13 -44 -31 -63 -39 -32 -14 -16 -15 227 -16 220
-1 264 1 277 14 8 8 23 15 33 14 10 0 13 -3 6 -6 -7 -2 -13 -9 -13 -14 0 -16
632 -7 638 9 2 6 18 11 35 11 18 -1 24 -3 15 -6 -43 -11 -11 -23 62 -23 62 0
82 3 86 15 4 8 14 15 25 15 10 0 30 12 44 26 14 14 53 39 88 55 34 16 70 34
80 39 13 8 17 6 17 -6 0 -18 -23 -44 -39 -44 -6 0 -11 -3 -11 -7 0 -5 -21 -17
-48 -27 -26 -11 -49 -22 -52 -25 -3 -3 -21 -14 -40 -23 -34 -16 -33 -17 123
-17 l157 -1 0 -127 c0 -167 2 -172 49 -166 31 4 39 1 56 -22 11 -15 28 -37 37
-49 18 -21 18 -21 33 -1 8 11 18 25 22 30 5 6 13 22 20 37 15 34 50 46 67 23
7 -9 13 -36 15 -59 3 -57 16 -66 46 -34 14 15 25 34 25 42 0 8 8 17 18 21 11
3 24 17 30 30 7 15 20 25 33 25 12 0 39 5 61 12 44 13 60 2 51 -33 -3 -10 0
-19 6 -19 6 0 11 -7 11 -15 0 -8 9 -15 20 -15 13 0 20 7 20 20 0 24 45 28 54
5 8 -21 56 29 56 59 0 16 9 26 35 36 23 9 35 20 35 32 0 11 -4 16 -10 13 -5
-3 -10 -1 -10 4 0 6 -6 10 -12 8 -8 -1 -14 11 -16 31 -3 28 -7 32 -33 32 -16
0 -29 -5 -29 -12 0 -24 -19 7 -22 37 l-3 30 212 0 c117 0 213 3 213 7 0 19 46
47 86 53 61 9 96 25 138 63 20 18 40 32 46 32 5 0 10 3 10 8 0 4 15 15 33 24
75 38 197 68 197 48 0 -5 -4 -10 -10 -10 -5 0 -10 -6 -10 -13 0 -12 -12 -21
-79 -59 -80 -46 -144 -78 -155 -78 -18 0 -86 -68 -86 -85 0 -8 -4 -15 -10 -15
-5 0 -10 -7 -10 -15 0 -8 -4 -15 -10 -15 -5 0 -10 -8 -11 -17 -1 -29 -17 16
-18 50 -1 21 -6 27 -24 27 -19 0 -27 -8 -37 -40 -15 -44 -21 -48 -44 -24 -14
14 -18 13 -40 -3 -19 -14 -25 -32 -33 -91 -15 -120 0 -170 39 -129 15 16 48
10 48 -8 0 -20 37 -25 44 -6 3 9 14 31 24 48 l19 33 13 -48 c15 -53 42 -85 68
-80 9 2 32 32 50 68 18 36 37 67 42 68 6 2 10 10 10 18 0 17 20 19 21 2 5 -72
39 -178 58 -178 14 0 51 50 51 70 0 11 5 20 10 20 22 0 59 51 73 100 2 8 7 -6
11 -32 4 -27 11 -48 17 -48 5 0 8 -3 8 -7 -5 -29 3 -73 12 -73 7 0 17 -7 23
-15 10 -14 14 -14 42 0 17 8 39 24 49 35 21 23 35 26 35 6 0 -22 28 -39 53
-32 23 5 47 42 47 72 0 16 23 44 37 44 10 0 43 -57 43 -74 0 -7 9 -21 20 -31
23 -21 61 -14 93 15 28 26 44 25 51 -4 13 -53 125 -34 153 26 32 67 42 173 24
251 -8 33 -7 38 13 43 12 3 55 4 96 2 69 -3 75 -5 72 -23 -6 -42 -62 -96 -62
-61 0 9 -8 16 -20 16 -14 0 -20 -9 -24 -32 -10 -62 -12 -108 -5 -108 3 0 9
-23 12 -50 8 -64 12 -70 48 -70 16 0 29 -4 29 -10 0 -5 11 -10 25 -10 13 0 28
-7 33 -16 10 -18 74 -44 108 -44 24 0 60 31 69 60 3 11 13 20 21 20 8 0 14 8
14 18 0 10 9 28 20 40 11 12 20 27 20 33 0 15 33 -19 43 -43 4 -11 17 -18 35
-18 32 0 52 -16 52 -42 0 -29 26 -21 40 12 18 43 37 56 45 31 9 -30 43 -26 58
7 6 15 17 33 24 40 11 11 13 7 13 -22 0 -46 16 -86 34 -86 8 0 24 20 36 45 24
50 42 49 55 -3 4 -15 15 -35 26 -45 25 -23 34 -16 86 63 21 33 41 59 44 60 5
0 21 -58 34 -126 4 -21 13 -34 28 -38 38 -10 45 -7 82 30 31 31 41 35 69 30
31 -6 33 -4 54 42 12 27 22 55 22 63 1 28 29 -37 30 -68 0 -32 22 -63 44 -63
7 0 22 11 32 25 10 14 21 25 24 25 7 0 30 -51 30 -67 0 -7 6 -13 13 -13 12 0
35 60 38 97 1 10 6 -7 10 -37 5 -30 12 -198 15 -372 l7 -318 142 0 142 0 9
423 c5 232 9 463 10 512 0 50 1 96 2 103 2 9 154 12 721 12 l720 0 3 118 c2
64 1 132 -1 149 l-3 33 -242 -4 c-132 -2 -245 -4 -251 -4 -5 0 -41 1 -80 4
-51 3 -77 0 -95 -10 -41 -25 -63 -33 -105 -40 l-40 -6 28 23 c15 13 24 26 21
30 -4 4 -56 7 -116 7 -99 0 -140 -8 -158 -32 -11 -14 -107 -56 -142 -62 -21
-4 -44 -13 -52 -21 -8 -8 -22 -15 -32 -15 -16 0 -105 -65 -112 -82 -2 -5 -15
-8 -28 -8 -13 0 -24 -4 -24 -9 0 -5 -15 -13 -32 -16 -18 -4 -38 -12 -45 -17
-7 -6 -26 -5 -52 3 -33 10 -46 10 -66 -1 -19 -10 -22 -16 -14 -27 9 -11 0 -13
-49 -13 -34 0 -64 -4 -67 -10 -9 -15 -48 -12 -71 5 -17 13 -17 14 -1 15 9 0
17 4 17 9 0 5 19 11 43 15 23 4 75 22 114 41 40 19 79 35 86 35 8 0 16 3 20 6
16 17 180 68 254 81 36 6 118 77 108 93 -4 7 -172 9 -453 8 l-447 -3 -39 -27
c-30 -21 -43 -25 -58 -17 -23 12 -23 29 0 29 16 1 16 1 -1 11 -31 18 -185 6
-257 -21 -36 -12 -73 -27 -82 -32 -28 -13 -34 -10 -36 24 -2 18 -5 34 -8 37
-3 4 -128 5 -277 3 l-272 -3 -90 -43 c-149 -72 -215 -71 -145 3 21 21 26 33
18 36 -7 2 -348 3 -758 2 -624 -2 -750 -5 -777 -17 -18 -8 -33 -18 -33 -22 0
-4 -9 -8 -20 -8 -11 0 -20 -3 -20 -8 0 -4 -20 -12 -45 -18 -25 -6 -45 -6 -45
-1 0 17 29 37 53 37 14 0 30 6 37 14 9 12 5 16 -27 22 -21 4 -58 7 -83 7 -25
0 -222 -1 -438 -2 -217 -1 -419 0 -450 2 -32 3 -128 2 -214 -2z m2202 -37 c0
-13 -36 -33 -59 -34 l-24 0 23 20 c22 19 60 28 60 14z m1334 -37 l28 -12 -58
-25 c-67 -27 -93 -53 -94 -92 0 -21 -5 -28 -20 -28 -11 0 -20 5 -20 10 0 6
-12 21 -26 34 l-27 22 26 26 c15 15 42 32 62 39 19 7 35 16 35 20 0 8 24 16
50 17 8 1 28 -4 44 -11z m-1234 -10 c0 -12 -22 -25 -95 -58 -16 -7 -33 -15
-37 -17 -5 -2 -8 2 -8 7 0 6 5 11 10 11 6 0 23 11 38 25 15 14 34 25 44 25 9
0 20 5 23 10 9 14 25 12 25 -3z m3630 4 c0 -5 -9 -13 -20 -16 -11 -3 -20 -10
-20 -14 0 -4 -19 -13 -42 -20 -24 -7 -51 -15 -60 -17 -10 -3 -18 0 -18 6 0 6
5 8 10 5 6 -3 10 -2 10 4 0 11 98 60 123 61 9 0 17 -4 17 -9z m-4833 -7 c-3
-3 -12 -4 -19 -1 -8 3 -5 6 6 6 11 1 17 -2 13 -5z m-1437 -18 c0 -13 -83 -85
-111 -96 -36 -13 -119 -29 -119 -23 0 10 69 70 95 83 58 28 135 49 135 36z
m3070 -15 c0 -5 -13 -11 -30 -13 -32 -5 -42 7 -12 15 29 8 42 7 42 -2z m-1707
-8 c-7 -2 -21 -2 -30 0 -10 3 -4 5 12 5 17 0 24 -2 18 -5z m3377 -79 c-14 -10
-30 -22 -35 -29 -6 -7 -25 -16 -43 -19 -51 -12 -39 12 21 39 61 28 93 33 57 9z
m-2442 -70 c-30 -16 -37 -41 -14 -50 12 -5 11 -13 -7 -49 -30 -61 -53 -59 -62
4 -5 39 -3 53 12 71 20 25 48 39 78 39 17 0 15 -2 -7 -15z m-914 -44 c61 0 71
-10 49 -48 -10 -18 -21 -32 -25 -32 -5 0 -8 -7 -8 -15 0 -12 -5 -12 -41 0 -23
8 -50 15 -60 15 -17 0 -20 4 -19 25 0 3 -7 19 -16 37 l-16 31 47 -6 c26 -4 66
-7 89 -7z m-221 -6 c11 -11 -5 -34 -24 -34 -21 0 -26 25 -6 33 17 8 23 8 30 1z
m1684 0 l30 -6 -22 -24 c-12 -13 -27 -24 -34 -24 -15 0 -41 -65 -41 -103 0
-48 -8 -28 -13 34 -3 31 -10 65 -15 75 -15 28 -15 36 0 45 15 10 54 11 95 3z
m1404 -4 c5 0 4 -9 -3 -20 -16 -25 -55 -27 -55 -2 0 20 17 34 35 27 8 -3 18
-5 23 -5z m299 -5 c0 -8 -5 -26 -12 -40 l-12 -26 -11 33 c-7 23 -7 35 0 40 17
12 35 9 35 -7z m-3540 -4 c0 -4 -17 -11 -37 -15 -55 -9 -63 -8 -63 9 0 11 12
15 50 15 28 0 50 -4 50 -9z m1450 -11 c0 -11 -4 -20 -10 -20 -5 0 -19 9 -30
20 l-20 20 30 0 c23 0 30 -4 30 -20z m204 5 c-4 -8 -10 -15 -15 -15 -5 0 -9 7
-9 15 0 8 7 15 15 15 9 0 12 -6 9 -15z m923 9 c-3 -3 -12 -4 -19 -1 -8 3 -5 6
6 6 11 1 17 -2 13 -5z m288 -4 c-3 -5 -10 -10 -16 -10 -5 0 -9 5 -9 10 0 6 7
10 16 10 8 0 12 -4 9 -10z"/>
<path d="M7795 3253 c-11 -3 -37 -18 -57 -34 -20 -16 -41 -29 -46 -29 -6 0
-27 -16 -48 -35 -22 -19 -68 -46 -104 -61 -36 -14 -80 -35 -98 -46 -18 -11
-63 -35 -100 -54 l-67 -33 58 -1 c54 0 67 5 165 63 173 101 262 139 262 113 0
-7 -28 -26 -62 -42 -34 -16 -86 -46 -116 -67 -30 -21 -68 -44 -85 -52 -28 -12
16 -13 349 -14 367 -1 382 0 404 19 13 11 29 20 37 20 7 0 13 4 13 8 0 4 16
14 35 21 19 7 35 16 35 21 0 5 9 11 19 15 10 3 35 21 56 40 20 19 45 35 56 35
10 0 19 5 19 10 0 6 4 10 9 10 12 0 98 58 107 71 12 20 -7 23 -36 5 -17 -9
-30 -12 -30 -7 0 6 5 11 11 11 5 0 7 5 4 10 -6 10 -748 13 -790 3z"/>
<path d="M8903 3253 c-25 -3 -33 -9 -33 -25 0 -23 37 -57 63 -58 28 0 9 -20
-19 -20 -13 0 -24 -4 -24 -9 0 -5 -8 -12 -17 -15 -10 -3 -32 -19 -50 -36 -32
-30 -53 -38 -53 -20 0 6 5 10 10 10 6 0 10 20 10 45 l0 45 -52 0 c-41 0 -63
-7 -105 -32 -29 -18 -53 -36 -53 -41 0 -14 -58 -64 -101 -89 -78 -43 -59 -48
195 -48 192 0 237 3 249 15 8 7 28 17 43 21 16 4 38 13 49 20 11 8 27 14 37
14 10 0 31 14 46 30 16 17 32 30 36 30 4 0 22 11 39 24 18 13 66 32 107 42 41
9 77 21 80 24 3 4 21 12 41 19 21 7 47 20 58 30 19 16 19 20 5 25 -20 8 -307
8 -355 0 -20 -4 -49 -17 -65 -31 -29 -25 -29 -25 -32 -3 -3 20 -40 42 -65 38
-7 0 -27 -3 -44 -5z"/>
<path d="M9721 3246 c-26 -31 16 -58 63 -40 24 9 19 41 -6 48 -34 9 -44 7 -57
-8z"/>
<path d="M10000 3250 c-54 -15 -70 -23 -70 -31 0 -5 -7 -9 -15 -9 -9 0 -27
-10 -40 -23 -14 -12 -65 -38 -115 -56 -49 -18 -90 -37 -90 -42 0 -5 -7 -9 -15
-9 -8 0 -15 -4 -15 -10 0 -5 -8 -10 -19 -10 -10 0 -29 -8 -42 -18 -13 -11 -39
-24 -57 -30 -31 -11 -62 -34 -62 -46 0 -13 133 -5 158 9 35 19 77 36 130 50
53 15 57 0 10 -39 l-32 -26 377 0 c318 0 378 3 391 15 8 8 19 15 24 15 5 0 22
11 38 25 16 14 49 32 75 39 25 8 68 28 97 46 28 17 56 29 61 26 5 -4 11 -2 13
3 5 14 58 25 58 12 0 -6 -10 -11 -21 -11 -12 0 -29 -8 -38 -18 -25 -27 -68
-52 -91 -52 -11 0 -20 -4 -20 -10 0 -5 -6 -10 -13 -10 -7 0 -29 -11 -47 -25
-19 -14 -52 -28 -72 -32 -108 -17 -14 -23 351 -23 324 0 402 3 413 14 12 11
112 71 173 103 11 5 34 18 52 27 17 9 40 16 50 16 10 0 23 4 28 8 6 4 35 16
65 27 30 10 66 25 80 32 19 10 26 10 29 1 2 -7 -1 -14 -8 -16 -7 -2 -20 -12
-29 -22 -9 -9 -27 -23 -40 -29 -57 -30 -82 -71 -43 -71 11 0 21 -5 23 -10 2
-7 32 -3 82 10 44 11 87 20 96 20 9 0 27 11 39 24 13 14 37 30 54 36 55 21
102 43 107 50 11 14 113 51 127 46 13 -5 13 -8 -1 -21 -8 -8 -19 -15 -25 -15
-6 0 -11 -4 -11 -9 0 -5 -14 -11 -31 -15 -17 -3 -57 -21 -88 -40 -31 -19 -75
-37 -98 -41 -24 -4 -43 -11 -43 -16 0 -5 -9 -9 -20 -9 -12 0 -30 -9 -41 -19
-11 -10 -48 -33 -82 -51 l-62 -31 74 4 c40 3 76 9 80 14 8 14 94 27 86 13 -3
-5 -12 -10 -20 -10 -8 0 -16 -4 -20 -10 -4 -6 371 -8 1038 -7 979 2 1045 3
1061 20 10 9 23 17 29 17 7 0 23 10 37 23 14 12 40 29 58 36 17 7 32 17 32 21
0 4 12 11 27 15 15 3 34 14 42 24 15 17 35 24 104 38 15 3 27 9 27 14 0 5 10
9 23 9 12 0 35 13 50 30 16 16 34 30 40 31 7 0 3 4 -8 9 -35 15 -416 12 -468
-4 -40 -12 -46 -12 -52 2 -5 13 -38 14 -283 9 -256 -6 -279 -8 -304 -27 -15
-11 -32 -20 -38 -20 -5 0 -10 -4 -10 -10 0 -5 -12 -10 -27 -10 l-28 1 28 24
c15 14 36 25 45 26 12 0 9 3 -7 10 -15 6 -275 9 -673 8 l-650 -2 -66 -24 c-79
-27 -92 -28 -92 -8 0 8 7 15 16 15 8 0 12 5 9 10 -4 6 -135 10 -359 10 -349 0
-401 -4 -432 -35 -6 -6 -31 -17 -55 -24 -24 -7 -52 -17 -61 -22 -45 -23 -52 2
-10 37 15 13 31 24 35 24 5 0 5 5 2 10 -4 6 -98 10 -250 10 -216 0 -251 -2
-295 -19 -27 -11 -51 -17 -51 -15 -1 2 -2 10 -3 17 -2 24 -91 20 -148 -6 -114
-53 -170 -59 -116 -12 15 13 24 26 21 29 -8 8 -112 5 -143 -4z m2754 -44 c-11
-6 -30 -14 -44 -18 l-25 -7 24 19 c13 11 29 20 37 20 8 0 14 6 15 13 0 8 2 8
6 -2 3 -8 -3 -19 -13 -25z m1174 3 c-9 -5 -23 -15 -30 -23 -8 -7 -24 -16 -36
-20 -72 -20 -67 -20 -46 2 22 22 56 42 93 52 31 9 42 2 19 -11z m-242 -54
c-11 -8 -22 -12 -25 -9 -6 6 19 24 34 24 6 -1 1 -7 -9 -15z m-1446 -4 c0 -4
-30 -23 -67 -42 -38 -19 -75 -40 -83 -48 -13 -12 -113 -61 -125 -61 -3 0 -5 6
-5 13 0 19 80 65 143 81 15 3 27 11 27 16 0 6 9 10 20 10 11 0 20 4 20 8 0 5
12 13 28 19 35 14 42 15 42 4z m-2230 -10 c0 -5 -11 -12 -25 -15 -14 -4 -25
-11 -25 -16 0 -6 -7 -10 -15 -10 -32 0 -2 36 36 43 13 2 25 5 27 6 1 0 2 -3 2
-8z m1259 -36 c-23 -20 -51 -40 -61 -46 -33 -18 -108 -37 -108 -29 0 19 68 71
105 80 22 6 49 15 60 20 43 19 45 8 4 -25z m-1016 -122 c-7 -2 -19 -2 -25 0
-7 3 -2 5 12 5 14 0 19 -2 13 -5z m1867 3 c0 -2 -9 -6 -20 -9 -11 -3 -20 -1
-20 4 0 5 9 9 20 9 11 0 20 -2 20 -4z"/>
<path d="M9380 3100 c0 -30 2 -31 38 -28 32 3 37 6 37 28 0 22 -5 25 -37 28
-36 3 -38 2 -38 -28z"/>
<path d="M9327 3033 c-4 -3 -7 -15 -7 -25 0 -15 8 -18 60 -18 61 0 73 9 46 36
-15 14 -87 20 -99 7z"/>
<path d="M11565 3001 c-37 -4 -51 -11 -53 -23 -3 -15 4 -18 40 -18 24 0 54 7
66 16 24 17 29 35 10 32 -7 0 -35 -4 -63 -7z"/>
</g>
</svg>
