<!DOCTYPE svg PUBLIC "-//W3C//DTD SVG 1.1//EN" "http://www.w3.org/Graphics/SVG/1.1/DTD/svg11.dtd">

<!-- Uploaded to: SVG Repo, www.svgrepo.com, Transformed by: SVG Repo Mixer Tools -->
<svg fill="#000000" width="strokeWidtht="173px" viewBox="-3.2 -3.2 38.40 38.40" version="1.1" xmlns="http://www.w3.org/2000/svg" transform="matrix(1, 0, 0, -1, 0, 0)">
strokeWidth
<g id="SVGRepo_bgCarrier" stroke-width="0"/>

<g id="SVGRepo_tracerCarrier" strokeLinecap="round" strokeLinejoin="round" stroke="#CCCCCC" stroke-width="2.496"> <title>o</title> <path d="M24.742 7.268c-2.164-2.201-5.174-3.565-8.502-3.565-0.079 0-0.158 0.001-0.237 0.002l0.012-0c-0.072-0.002-0.156-0.002-0.241-0.002-3.333 0-6.347 1.364-8.515 3.564l-0.001 0.001c-2.201 2.164-3.565 5.173-3.565 8.501 0 0.079 0.001 0.158 0.002 0.237l-0-0.012c-0.001 0.066-0.002 0.144-0.002 0.223 0 3.329 1.363 6.339 3.562 8.503l0.002 0.002h0.001c2.17 2.2 5.184 3.563 8.516 3.563 0.085 0 0.169-0.001 0.254-0.003l-0.013 0c0.038 0 0.083 0.001 0.128 0.001 6.717 0 12.162-5.445 12.162-12.162 0-0.045-0-0.089-0.001-0.133l0 0.007c0.001-0.066 0.002-0.145 0.002-0.223 0-3.328-1.364-6.338-3.563-8.501l-0.002-0.002zM16.016 25.752c-0.066 0.002-0.144 0.003-0.222 0.003-2.626 0-5-1.081-6.7-2.821l-0.002-0.002c-1.751-1.699-2.838-4.074-2.838-6.703 0-0.083 0.001-0.165 0.003-0.247l-0 0.012c-0.002-0.070-0.003-0.153-0.003-0.236 0-2.628 1.087-5.002 2.836-6.698l0.002-0.002c1.703-1.744 4.078-2.826 6.705-2.826 0.077 0 0.154 0.001 0.23 0.003l-0.011-0c0.068-0.002 0.147-0.003 0.227-0.003 2.619 0 4.985 1.081 6.677 2.822l0.002 0.002c1.744 1.7 2.825 4.072 2.825 6.697 0 0.085-0.001 0.169-0.003 0.254l0-0.012c0.002 0.072 0.003 0.156 0.003 0.241 0 2.625-1.082 4.997-2.823 6.695l-0.002 0.002c-1.693 1.742-4.059 2.823-6.677 2.823-0.081 0-0.161-0.001-0.241-0.003l0.012 0z"/> </g>

<g id="SVGRepo_iconCarrier"> <title>o</title> <path d="M24.742 7.268c-2.164-2.201-5.174-3.565-8.502-3.565-0.079 0-0.158 0.001-0.237 0.002l0.012-0c-0.072-0.002-0.156-0.002-0.241-0.002-3.333 0-6.347 1.364-8.515 3.564l-0.001 0.001c-2.201 2.164-3.565 5.173-3.565 8.501 0 0.079 0.001 0.158 0.002 0.237l-0-0.012c-0.001 0.066-0.002 0.144-0.002 0.223 0 3.329 1.363 6.339 3.562 8.503l0.002 0.002h0.001c2.17 2.2 5.184 3.563 8.516 3.563 0.085 0 0.169-0.001 0.254-0.003l-0.013 0c0.038 0 0.083 0.001 0.128 0.001 6.717 0 12.162-5.445 12.162-12.162 0-0.045-0-0.089-0.001-0.133l0 0.007c0.001-0.066 0.002-0.145 0.002-0.223 0-3.328-1.364-6.338-3.563-8.501l-0.002-0.002zM16.016 25.752c-0.066 0.002-0.144 0.003-0.222 0.003-2.626 0-5-1.081-6.7-2.821l-0.002-0.002c-1.751-1.699-2.838-4.074-2.838-6.703 0-0.083 0.001-0.165 0.003-0.247l-0 0.012c-0.002-0.070-0.003-0.153-0.003-0.236 0-2.628 1.087-5.002 2.836-6.698l0.002-0.002c1.703-1.744 4.078-2.826 6.705-2.826 0.077 0 0.154 0.001 0.23 0.003l-0.011-0c0.068-0.002 0.147-0.003 0.227-0.003 2.619 0 4.985 1.081 6.677 2.822l0.002 0.002c1.744 1.7 2.825 4.072 2.825 6.697 0 0.085-0.001 0.169-0.003 0.254l0-0.012c0.002 0.072 0.003 0.156 0.003 0.241 0 2.625-1.082 4.997-2.823 6.695l-0.002 0.002c-1.693 1.742-4.059 2.823-6.677 2.823-0.081 0-0.161-0.001-0.241-0.003l0.012 0z"/> </g>

</svg>